<?xml version="1.0" encoding="UTF-8"?><svg id="default" xmlns="http://www.w3.org/2000/svg" xmlns:xlink="http://www.w3.org/1999/xlink" viewBox="0 0 374.68 86.35"><defs><style>.cls-1{fill:#1c1c1c;}.cls-2{clip-path:url(#clippath);}.cls-3,.cls-4{fill:none;}.cls-4{stroke:#e5e5e5;stroke-miterlimit:10;}</style><clipPath id="clippath"><rect class="cls-3" x="2460.8" y="-166.83" width="1251.87" height="657.78"/></clipPath></defs><g class="cls-2"><path class="cls-4" d="m-2246.45-3756.85c1300.4-225.9,2659.2-133.6,3911.5,308.3,1067.8,376.9,2475.9,1104.9,2425.2,2498.6-45.1,1238.5-1074.7,2226.2-2192,2420.5-688.5,119.8-1391.4.7-2052.9-212.3-625.4-201.1-1247-470.7-1807.1-828.5-536.6-342.7-1038.9-789.2-1349.1-1372.7-261.5-492-388-1112-173.4-1648.6,255.2-637.8,887.4-825.2,1486.8-900.4,570.7-71.5,1153.4-33.5,1715,92.9,1033.9,232.4,2069.5,786.1,2708.9,1695.8,557,792.6,693.5,1948.2,1.8,2707.6C1549.45,1969.15,61.65,1623.55-965.45,1162.65-1946.55,722.35-3088.05-12.55-3384.55-1172.85c-152.6-597.4,3-1192.5,489.9-1555.2,427.9-318.5,992.1-419.2,1505.3-431.1,1133.2-26.2,2454.1,402,3216.7,1325.7,385.7,467,616.8,1080.6,543.2,1704.6-70,592.3-413.9,1151.4-930,1414.5-592.9,302-1325.7,320.5-1969.2,247.9-622-70.4-1236.9-250.1-1787.9-566.4-481.8-276.6-960.8-717.7-1118.3-1291.5-144.7-527.4,88.1-1025.1,509-1320C-1954.05-2324.95-465.55-1963.15,168.25-947.45c318.9,511.1,357.1,1172.7,6.2,1676.7-337.8,485.3-897.3,735.1-1458.7,753.7-1218.8,40.6-2416.3-840-3068.9-1876.2-579.8-920.8-922.1-2447.3,108-3169.4,957.2-671.1,2353.8-508.1,3307.8,76.9,445,272.8,854.1,666.7,1075.3,1164C355.25-1833.25,412.75-1206.05-12.75-821.75c-378.7,341.9-937.2,432.8-1419,373.5-546.3-67.1-1045.6-361-1413.9-788-752-871.8-1201.1-2362.1-305.9-3297.2,860.1-898.3,2279.9-1025.1,3405.7-769.1,1199.5,272.8,2339,1048.9,2853.7,2255.4,240.4,563.6,356.5,1207.5,230.1,1818.6-122,589.9-500.6,1078.8-1005.2,1356.4-576.2,317.1-1229,333.2-1841.2,123.7C-96.95,50.15-681.35-296.35-1148.15-724.25c-450.9-413.4-807.4-1009.7-700-1663.1,86.9-528.6,491.7-900.7,939-1104.4,1069.7-487.3,2303.1-225.6,3257.1,419.4,520.2,351.6,992.8,803.6,1398.2,1294,395.8,478.6,692,1050.2,630.1,1704-122.4,1293.1-1341.2,2046.5-2463.8,2193.1-1279.2,167.1-2610.4-377.8-3599.4-1214.3-425.6-360-760.5-857.6-619.9-1456.1,122.5-520.7,540-934.2,981.8-1168.4,1131.5-600,2595.2-302.9,3657.4,324.8,919.2,543.1,1795.9,1573.7,1448,2763.3-373.8,1278.4-1791,1658.7-2920.5,1592.6-712.1-41.6-1410-233.4-2080.9-480.3-557.3-204.9-1113.2-458.6-1583.8-839.6-387-313.1-887.6-867.5-784.7-1434.5,107.1-590.1,831.3-704.6,1290.6-572.4C-1751.95-208.65-1213.15,297.95-1047.95,876.35c159.4,558.1-148.1,1109.1-650.9,1313-568.2,230.3-1246.9,58.6-1731.9-298.7-497-366.1-921.7-926.5-1229.5-1472.5-275.5-488.8-447.7-1073.9-271.6-1633.1,163-517.5,548-889.5,1029.1-1071.9,27.5,105.1,55,210,82.4,315-748.1,162.7-1751.5-487.3-1329.9-1379.6,439-929.4,1700.9-963,2520-720.8,486.2,143.9,941.5,395.2,1362.3,685.8,317.1,218.8,714.5,581.5,516.1,1026.8-194,435-764.1,413.4-1086.8,162.5-337.5-262.3-483.6-789-495.9-1213.4-30-1032.9,927.8-1437.5,1763.7-1448.3,890.2-11.5,1810.3,316.2,2524,873.8,622.7,486.1,1140.9,1184,1240.5,2014.3,52.2,435-35.1,888.6-329,1214-319.2,353.4-809.3,487.2-1257.4,513.5C768.45-194.15-383.85-585.95-548.15-1587.25c-157.9-962.4,791.2-1501.4,1549.7-1651.6,1539.1-304.8,3863.5,590,3892.7,2528.8,13.3,883.6-506.2,1675.2-1199.4,2131.4-758.6,499.4-1722.4,658.3-2601.2,542.6-445.9-58.7-894.4-183.8-1288.3-417.2-345.6-204.8-716-545.3-719.2-998.6-3-424.5,338.4-746.2,682.6-900,423.1-189.2,905.7-166,1320.7,36.6,364.4,177.8,670.8,527.8,672,970.4,1.3,473.4-326.1,844.4-717.9,1026.4-451.1,209.4-972.6,255.6-1460.6,240.7-494.5-14.9-991-107.1-1457.2-282.6-861.6-324.2-1640.3-947.2-1993.1-1859-159.8-413.1-228.1-900.3-123.1-1337.8,104.9-437,428.8-735.5,802.7-923.2,397.9-200.1,831-304.8,1260.2-399.9,194.7-43.2,277.9,271.7,82.4,315-600.1,132.8-1592,293.7-1822.8,1008.9C-3900.65-835.45-3521.55-6.15-3048.15,502.65c558.5,600.4,1339.5,928.5,2119.3,1047.7,414.9,63.5,848,69.1,1262.8,2.1,361.9-58.4,790.3-175.8,1005.1-517.7,206.3-328.5,102.3-708.3-186.5-934.5C845.75-139.95,416.05-217.25,49.35-111.15-240.05-27.35-643.35,221.65-601.55,595.45c40.8,364.8,429.7,609.4,712.7,750.4,1257.3,626.8,3173.7,409.7,4059.7-804.3,394.1-539.9,542.2-1270.1,280.1-1908.7-270.1-658.3-889.7-1114.7-1509.3-1359.7-701.8-277.8-1494.6-344.6-2214.7-103-312.7,105-641.9,278.2-836.3,567.8-201.9,300.7-180.9,671.9,3.5,975.5C316.35-591.35,1345.55-445.05,2044.15-642.25c373-105.1,705.2-337.3,813.7-746.3,85.7-322.7,32.9-670-71.4-980.5-461.8-1375.5-2042.7-2180.3-3357.3-2163.5-699.9,9.1-1523.9,312.8-1449.7,1200.3,30.2,361,175.4,853.9,543.9,965,158.8,48,395.9,38.2,455.5-159.8,56.4-187.8-112.6-350.4-236.9-454.1-628.8-523.9-1476.4-906.8-2284.9-893.2-396.6,6.7-829.9,105.6-1129.4,397.4-235.1,229.1-375.2,586.2-148.7,875.8,213.7,273.2,596.6,384.3,918.1,314.2,196.5-42.7,269.9,243.9,82.4,315-432.9,164.2-769.3,537.4-856.2,1020-97.3,540,177.9,1070,464.6,1495.2,315.9,468.7,695,958.1,1188.4,1225.1,431.5,233.3,1092.2,320.2,1480.4-51.9C-705.35,913.15-2281.25-494.65-3103.05,18.25c-490.1,305.8,82.2,998.9,351.2,1248.5,387.1,359.4,871.6,603.3,1349.5,797,1066.3,432.2,2278.3,760.7,3416,470.7,489.1-124.8,978.6-372.6,1268.9-822.9,254.9-395.3,332.3-887.9,198-1346-295.3-1008.1-1369.2-1629.7-2268.7-1899.7-971-291.3-2286.4-307.8-2986.2,594.7-286.7,369.8-347.5,836.2-65.4,1228.9,317.7,442.3,841.9,756.6,1304.9,1001.3,994.8,526.1,2181.5,731.6,3237.2,280.6,463.9-198.3,904-526.6,1156.8-990.8,258.8-475.1,287-1051.3,53.3-1543.6-244.7-515.4-677.9-942.2-1084.4-1318.1-391.8-362.5-831.5-679.9-1317.8-884.2-817.8-343.4-1951.4-407-2678.8,208.3-404.9,342.4-487.2,887.3-254.4,1369.8C-1175.65-1074.85-689.55-725.45-227.15-450.45,270.25-154.75,821.35,96.55,1404.25,68.05c498.7-24.5,1001.7-273.2,1320.5-681.8,685.4-878.4,296.2-2226.8-324.4-3016.7-705.3-897.4-1807.4-1386.2-2898-1453.7-911.2-56.3-2155.3,181.8-2663.5,1086.6-297.8,530.5-194.2,1171.5,35.5,1707,197.8,461.1,486.6,898.2,889.5,1184.2,389.9,276.9,853.1,396.3,1320.2,331.8C-505.05-831.35-20.55-1045.05.75-1547.35c20-471.5-256.6-923.8-565.5-1239.1-339.7-346.7-770.5-590-1222.1-731.5-496.8-155.7-1031.9-193.6-1540.8-80.8-455.4,101.1-950.8,324.2-1159.9,793.7-211.6,474.9-101.6,1081.5,63.1,1553.9,168.8,484.3,456,919.4,801.2,1282.6,722.9,760.7,1940,1453.6,2968.8,982.6C-224.65,817.15,134.85,402.05,118.55-114.75c-18-563.7-428.7-1023.2-876.7-1278.2-460.3-261.8-1010.2-343-1517.1-199.4-424.2,120.1-903.8,431.1-895.5,952.4,7.9,494.6,412.7,918.7,776.2,1176.4,453.3,321.4,990.7,513,1524.9,617.4C132.95,1350.15,1654.05,1342.85,2011.95,91.45c318.8-1115.2-557.2-2046.2-1437.3-2481.8-877.9-434.6-2022.8-629.2-2951.2-257-461.9,185.2-797.4,566.1-755.9,1115.1,36.2,478.4,295.3,908.8,604.2,1246.7C-1819.65,488.95-762.95,1016.45,231.25,1221.35c922.1,190,2085.4-29.8,2325.6-1143.9,188.4-873.9-336.7-1684.9-952.3-2212-739.3-632.8-1710.5-980.9-2653.8-1052.4-505-38.3-1055.2-21.4-1537.6,154.9-524.2,191.4-760.8,695.9-680.1,1259.7C-3101.25-616.05-1993.55,115.55-1065.85,551.75-37.65,1035.05,1233.05,1456.45,2336.45,1008.05c897.2-364.8,1708.2-1450,1371.9-2502.3-167.6-524.6-621-884.8-1060.6-1147.6-481.4-287.9-1006.9-493.6-1541.4-640.9-1062.2-292.9-2187.1-347.4-3270.3-159-195.3,34-279.2-280.9-82.5-315.1h0Z"/></g><g><path class="cls-1" d="m81.95,62.99c-8.35,15.46-21.22,23.37-38.15,23.37C18.85,86.35,0,67.84,0,43.46S18.4,0,43.23,0c17.27,0,31.94,8.81,38.38,23.14h-9.37c-3.16-4.97-5.42-7.45-9.14-9.82-5.53-3.73-12.3-5.64-19.53-5.64-19.87,0-35.11,15.35-35.11,35.44s15.92,35.55,35.22,35.55c7.56,0,15.12-2.48,20.66-6.88,2.82-2.14,4.85-4.4,8.35-8.81h9.26Z"/><path class="cls-1" d="m214.4,23.14h8.35v11.78c3.27-6.77,10.91-14.35,28.42-11.78l-.9,6.76c-17.49-3.38-27.4,12.38-27.52,23.38v31.61h-8.35V23.14Z"/><path class="cls-1" d="m311.96,84.88h-8.35v-10.84c-6.55,8.81-13.32,12.3-23.82,12.3-18.96,0-33.07-13.77-33.07-32.17s14-32.51,32.51-32.51c10.72,0,18.29,3.84,24.38,12.42v-10.95h8.35v61.75Zm-56.78-31.27c0,14.11,10.72,25.06,24.72,25.06s23.7-10.95,23.7-24.95-10.61-24.38-24.16-24.38-24.27,10.83-24.27,24.27Z"/><path class="cls-1" d="m320.04,23.14h8.35v8.01c5.19-6.32,11.74-9.48,19.87-9.48,8.69,0,16.14,3.5,21,9.59,3.95,5.31,5.42,10.83,5.42,21.22v32.4h-8.35v-32.4c0-8.13-1.13-12.64-4.06-16.48-3.39-4.18-8.92-6.66-15.01-6.66-6.55,0-12.3,2.82-15.58,7.56-2.37,3.5-3.27,7.11-3.27,14v33.98h-8.35V23.14Z"/><polygon class="cls-1" points="155.7 1.47 155.7 9.03 185.14 9.03 185.14 84.88 193.49 84.88 193.49 9.03 222.93 9.03 222.93 1.47 155.7 1.47"/><path class="cls-1" d="m133.77,27.58c4.45,4.12,7.03,10.18,7.03,17.49v39.81h-7.55v-12.09c-2.44,4.12-5.88,7.39-10.33,9.83-4.45,2.44-9.49,3.65-15.12,3.65-6.63,0-11.95-1.68-15.93-5.04-3.99-3.36-5.98-7.68-5.98-12.97,0-5.71,2.16-10.71,6.48-14.24,4.32-3.53,10.52-5.29,18.58-5.29l22.3.13v-3.53c0-5.63-1.32-8.97-4.48-11.8-2.89-2.6-7.86-4.63-14.05-4.63s-10.71,2.48-12.59,3.91c-2.14,1.63-4.68,4.05-5.95,8.94l-7.34-1.92c1.39-5.46,4.26-9.67,8.88-13.02,4.62-3.36,10.21-5.04,16.76-5.04,7.56,0,14.83,1.7,19.29,5.82Zm-7.89,44.66c4.83-4.28,7.37-9.13,7.37-13.98v-2.92h-22.42c-6.13,0-10.57,1.24-13.64,4.05-3.07,2.81-4.03,6.13-4.03,8.55,0,4.38,1.53,6.89,4.6,9.33,3.07,2.44,9.14,2.57,10.68,2.57,6.89,0,12.62-3.31,17.45-7.6Z"/></g></svg>