<?xml version="1.0" encoding="UTF-8"?><svg id="Layer_1" xmlns="http://www.w3.org/2000/svg" viewBox="0 0 163.7 163.7"><defs><style>.cls-1{stroke-miterlimit:10;}.cls-1,.cls-2{fill:none;stroke:#fff;stroke-width:7px;}.cls-2{stroke-linejoin:bevel;}</style></defs><circle cx="81.85" cy="81.85" r="81.83"/><path class="cls-2" d="m34.22,53.52c-1.79-5.62-3.25-11.98-.22-17.25,4.63-8.06,13.27-11.54,21.71-9.64,15.47,3.49,22.66,21.64,19.25,37.31-2.12,9.74-7.23,18.77-12.69,26.71-2.89,4.19-6.02,8.18-9.38,11.94-4.3,4.82-8.99,9.23-13.95,13.23"/><path class="cls-2" d="m131.25,59.82c1.33-11.43-4.78-23.96-13.99-29.52-10.94-6.61-22.54.48-27.04,12.28-1.5,3.94-2.27,8.21-2.34,12.48-.22,12.56,4.7,24.7,11,34.98,6.33,10.33,23.39,28.18,23.39,28.18"/><path class="cls-2" d="m107.85,48.63c-1.79,9.69,1.08,21.59,10.18,29.58"/><path class="cls-2" d="m57.58,49.33c0,10.09-3.56,23.01-13.08,30.95"/><path class="cls-2" d="m143.39,62.04c1.28,3.1,3.92,5.71,4.26,9.05.43,4.28-2.49,7.91-3,12.05-.89,7.28,6.99,13.19,4.93,20.52-1.17,4.16-5.06,6.99-9.3,7.34-4.36.36-9.29-1.99-10.5-6.44-1.03-3.8.99-7.65,4.58-9.17"/><path class="cls-2" d="m24.28,58.09c-1.58,3-4.38,5.34-5.11,8.69-.94,4.29,1.34,8.32,1.29,12.57-.08,7.49-8.18,12.58-7.18,20.26.57,4.36,3.85,7.68,7.77,8.52,4.03.87,8.93-.95,10.62-5.32,1.44-3.74.03-7.87-3.13-9.83"/><polyline class="cls-1" points="46.78 136.79 80.08 102.74 112.68 132.58"/><path class="cls-2" d="m77.52,127.97c-1.4.94-2.58,2.57-3.33,5.03-1.56,5.15-.88,11.49,1.51,16.29,2.1,4.22,6.82,5.99,10.78,2.74,4.78-3.93,4.32-11.84,2.93-17.19-1.61-6.21-7.69-9.69-11.89-6.87Z"/><path class="cls-1" d="m60.91,13.1c14.05,1.44,20.31,16,20.31,16,0,0,8.31-13.33,21.56-15.6"/></svg>