<?xml version="1.0" encoding="UTF-8"?><svg id="Layer_1" xmlns="http://www.w3.org/2000/svg" viewBox="0 0 163.67 163.67"><defs><style>.cls-1{fill:none;stroke:#fff;stroke-linejoin:bevel;stroke-width:7px;}</style></defs><circle cx="81.83" cy="81.83" r="81.83"/><path class="cls-1" d="m61.13,94.29c11.82-11.48,25.63-1.84,26.03,4.49l-8.76-84.08"/><path class="cls-1" d="m28.41,105.92c-2.01-15.87-4.02-31.74-6.03-47.62,6.25,7.72,14.6,8.79,23.79,4.16"/><path class="cls-1" d="m120.47,102.42s-2.16-31.73-3.24-44.31c4.49,6.01,17.42,8.89,24.92,1.26"/><path class="cls-1" d="m74.65,147.37c6.45-7.13,16.43-17.25,16.82-27.51.35-9.32-11.36-9.94-14.83-2.48-5.14,11.07,13.53,22.5,20.84,27.76"/><path class="cls-1" d="m30.44,43.93c2.12,2.91,6.64,4.92,11.39,5.08,4.75.15,9.53-1.56,12.04-4.32"/><path class="cls-1" d="m116.53,42.26c2.03,2.91,6.38,4.92,10.93,5.08s9.15-1.56,11.56-4.32"/><path class="cls-1" d="m66.4,33.3c10.89,4.81,20.21,3.6,27.88-3.93"/><path class="cls-1" d="m68.38,50.74c10.89,4.81,20.21,3.6,27.88-3.93"/><path class="cls-1" d="m70.13,67.63c10.89,4.81,20.21,3.6,27.88-3.93"/><line class="cls-1" x1="41.61" y1="82.26" x2="47.88" y2="134.02"/><line class="cls-1" x1="132.96" y1="78.41" x2="135.61" y2="128.03"/></svg>