<?xml version="1.0" encoding="UTF-8"?><svg id="Layer_1" xmlns="http://www.w3.org/2000/svg" viewBox="0 0 163.66 163.66"><defs><style>.cls-1{fill:none;stroke:#fff;stroke-miterlimit:10;stroke-width:7px;}</style></defs><circle cx="81.83" cy="81.83" r="81.83"/><path class="cls-1" d="m24.18,60.15c-1.84,2.58-2.62,5.76-1.45,8.97,1.19,3.29,3.94,5.82,7.02,7.47,7.24,3.87,15.82,4.59,23.85,3.83,7.3-.69,21.75-2.6,19.9-13.1-2.07-11.68-16.1-16.21-26.38-15.97-6.81.16-14.58,1.69-20.11,5.91-1.09.83-2.05,1.81-2.82,2.89Z"/><path class="cls-1" d="m34.37,94.27c5.22.47,10.48.98,15.72.56,13.82-1.09,24.48-12.04,23.51-26.16"/><path class="cls-1" d="m124.51,63.46c4.75-.63,11.53-1.34,14.88-5.21,2.04-2.35,2.48-5.84,1.52-8.8-2.77-8.58-13.78-11.32-21.74-11.07-7.46.23-15.61,1.71-21.88,5.96-1.59,1.08-3.08,2.36-4.06,4.01-1.7,2.85-1.52,6.04.69,8.58,2.25,2.58,5.67,4.24,8.89,5.22,6.79,2.06,14.43,2.28,21.69,1.32Z"/><path class="cls-1" d="m92.11,52.14c-.7,6.98-.73,15.57,4.71,20.83,6.78,6.56,19.42,7.14,30.79,5.69"/><polyline class="cls-1" points="21.11 118.62 103.4 135.45 154.43 89.78"/><path class="cls-1" d="m84.62,86.49c-.09,11.84,3.15,22.68,10.19,30.35"/><path class="cls-1" d="m22.88,42.26c13.93-5.27,25.14-6.51,39.59-3.95"/><path class="cls-1" d="m88.97,32.8c11.76-2.71,22.9-7.44,32.89-14.22"/></svg>