<?xml version="1.0" encoding="UTF-8"?><svg id="Layer_1" xmlns="http://www.w3.org/2000/svg" viewBox="0 0 163.66 163.66"><defs><style>.cls-1{fill:none;stroke:#fff;stroke-linejoin:bevel;stroke-width:7px;}</style></defs><circle cx="81.83" cy="81.83" r="81.83"/><path class="cls-1" d="m30.61,46.69c6.54,13.62,22.5,16.17,34.33,9.81-10.35-7.08-17.98-16.89-19.62-28.33"/><path class="cls-1" d="m133.6,46.69c-6.54,13.62-22.5,16.17-34.33,9.81,10.35-7.08,17.98-16.89,19.62-28.33"/><path class="cls-1" d="m72.4,132.15c3.43-9.92,23.49-10.35,24.78,1.32,1.04,9.45-10.17,13.59-17.72,11.11-4.21-1.38-7.72-5.39-7.54-9.82.04-.93.21-1.81.49-2.62Z"/><path class="cls-1" d="m87.62,16.86c-8.68,35.74-9.14,71.29-4.25,106.37"/><path class="cls-1" d="m98.19,74.53c12-2.5,25.11,1.12,34.11,9.43"/><path class="cls-1" d="m64.19,75.62c-12-2.5-25.11,1.12-34.11,9.43"/><path class="cls-1" d="m49.85,88.15c-3.3,11.13-.25,23.92,7.72,32.37"/><path class="cls-1" d="m112.76,89.19c.43,10.16.61,21.19-5.38,29.41"/><path class="cls-1" d="m117.88,134.57c18.77-9.72,30.62-31.41,28.65-52.46"/><path class="cls-1" d="m14.66,85.38c.35,20.64,10.41,40.91,26.64,53.66"/></svg>