<?xml version="1.0" encoding="UTF-8"?><svg id="Layer_1" xmlns="http://www.w3.org/2000/svg" viewBox="0 0 163.66 163.66"><defs><style>.cls-1{stroke-miterlimit:10;}.cls-1,.cls-2{fill:none;stroke:#fff;stroke-width:7px;}.cls-2{stroke-linejoin:bevel;}</style></defs><circle cx="81.83" cy="81.83" r="81.83"/><line class="cls-1" x1="35.5" y1="49.28" x2="127.17" y2="50.83"/><polyline class="cls-1" points="65.26 82.92 101.8 90.71 93.94 69.2"/><polyline class="cls-1" points="110.14 104.23 119.53 130.2 44.13 117.76"/><path class="cls-2" d="m17.16,78.83c.14,5.65,3.87,11.71,7.58,15.74,4.81,5.2,13.35,8.78,19.72,4.15,4.94-3.59,5.36-9.96,3.76-15.4-3.14-10.64-15.6-22.1-26.54-13.78-3.37,2.57-4.61,5.85-4.53,9.28Z"/><path class="cls-1" d="m121.38,78.91c.03,3.75,1.33,7.72,3.69,10.76,3.46,4.47,9.93,7.34,15.35,4.65,4.84-2.4,6.21-9.08,5.58-14.01-1.11-8.6-10.09-16.63-18.9-11.97-3.98,2.11-5.75,6.22-5.72,10.57Z"/><polyline class="cls-1" points="51.06 17.1 81.83 34.01 108.4 15.47"/><path class="cls-1" d="m50.63,137.6c16.35,3.19,32.69,6.39,49.04,9.58"/></svg>