<?xml version="1.0" encoding="UTF-8"?><svg id="Layer_1" xmlns="http://www.w3.org/2000/svg" viewBox="0 0 163.66 163.66"><defs><style>.cls-1{fill:none;stroke:#fff;stroke-linejoin:bevel;stroke-width:7px;}</style></defs><circle cx="81.83" cy="81.83" r="81.83"/><path class="cls-1" d="m32.6,38.14c1.91-4.26,5.52-8.14,10.16-9.28,11.77-2.89,17.73,13.03,29.27,10.23,7.59-1.84,10.83-10.46,18.67-11.87,8.9-1.61,15.24,6.68,23.73,7.24,6.81.45,13.72-4.07,11.36-13.09"/><path class="cls-1" d="m26.81,58.15c-4.75,5.62-9.43,11.84-12.22,18.7-4.27,10.49-1.32,22.73,8.5,28.93,9.86,6.22,22.51,4.56,32.86,9.71,4.55,2.26,6.88,5.92,7.64,10.86.87,5.62.65,11.18,4.64,15.69,3.7,4.17,9.16,6.46,14.63,7.07,32.5,3.63,55.85-29.58,61.8-57.83"/><path class="cls-1" d="m83.7,73.24c-9.08,2.53-21.75,13.99-16.34,24.62,1.72,3.37,5.56,5.31,9.34,5.45,6.83.26,11.38-4.4,17.11-7.15,2.41-1.16,5.77-1.23,7.32.96.87,1.22.93,2.85.69,4.33-1.23,7.5-14.61,19.47-5.32,25.99,4.85,2.38,11.4-.82,14.72-4.51,14.31-15.94,19.12-42.59,16.03-63.13"/><path class="cls-1" d="m43.67,50.76c4.53-2.31,12.64-.96,13.18,5.09.64,7.21-7.94,10.56-12.05,14.93-8.24,8.78-1.89,22.77,8.76,25.88"/><path class="cls-1" d="m94.53,64.85c2.81,8.38,13.66,7.62,14.24-1.62.36-5.76-2.95-17.92-11.01-15.63-6.94,1.97-4.95,12.11-3.23,17.26Z"/></svg>