<?xml version="1.0" encoding="UTF-8"?><svg id="Layer_1" xmlns="http://www.w3.org/2000/svg" viewBox="0 0 163.71 163.71"><defs><style>.cls-1{fill:none;stroke:#fff;stroke-miterlimit:10;stroke-width:7px;}</style></defs><circle cx="81.85" cy="81.85" r="81.83"/><path class="cls-1" d="m142.6,42.94c-3.86,6.13-9.64,13.9-13.51,20.04l-11.92-27.71-26.48,32.28-24.87-21.23-7.58,29.26-33.67-16.12,6.22,28.76-21.66-3.73"/><polyline class="cls-1" points="74.64 117.27 80.84 95.3 93.99 110.42"/><polyline class="cls-1" points="23.52 40 46.26 48.17 55.37 18.5 88.08 41.7 106.28 11.17"/><path class="cls-1" d="m78.49,151.17c2.74-7.11,5.48-14.22,8.22-21.33,7.61,6.26,15.76,11.93,23.75,17.69"/><path class="cls-1" d="m111.34,103.31c2.44,7.82,6.84,17.61,14.64,19.18,9.64,1.94,9.73-12.73,9.12-18.78-.88-8.75-8.2-28.35-19.86-26.4-9.23,1.54-6.76,15.31-5.17,21.5.35,1.36.77,2.89,1.27,4.5Z"/><path class="cls-1" d="m35.6,113.41c-1.8,10.27,6.43,26.13,15.06,25.17,14.34-1.58,6.03-35.64-7.16-33.42-4.75.8-7.16,4.06-7.9,8.25Z"/></svg>