<?xml version="1.0" encoding="UTF-8"?><svg id="Layer_1" xmlns="http://www.w3.org/2000/svg" viewBox="0 0 163.66 163.66"><defs><style>.cls-1{fill:none;stroke:#fff;stroke-linejoin:bevel;stroke-width:7px;}</style></defs><circle cx="81.83" cy="81.83" r="81.83"/><path class="cls-1" d="m18.07,49.93c10.1-.87,20.23-1.73,30.2-3.62,9.18-1.73,20.53-2.97,27.21-10.41s5.09-21.71-7.1-20.95c-5.02.31-9.51,3.45-12.63,7.4-13.65,17.32-6.03,45.73,13.52,55.22,7.05,3.42,15.83,3.26,22.85-.42,7.89-4.14,14-11.29,17.65-19.35,2.87-6.33,3.92-24.14-7.05-23.6-2.64.13-5.03,1.88-6.34,4.18-1.31,2.29-1.62,5.05-1.33,7.68.48,4.24,2.47,8.22,5.21,11.49,9.88,11.79,30.18,18.52,43.6,8.81"/><path class="cls-1" d="m23.79,109.32c37.34,8.65,52.79,43.17,52.79,43.17,0,0,20.65-32.47,67.28-44.37"/><path class="cls-1" d="m77.09,100.55c2.35,7.08,4,14.39,4.94,21.78"/><path class="cls-1" d="m32.8,90.3c7.61,1.07,15.31,2.83,21.76,7.01,6.45,4.18,11.48,11.17,11.59,18.85"/><path class="cls-1" d="m93.48,108.12c2.38-7.76,8.17-14.4,15.53-17.81,7.36-3.41,16.17-3.54,23.63-.35"/></svg>