<?xml version="1.0" encoding="UTF-8"?><svg id="Layer_1" xmlns="http://www.w3.org/2000/svg" viewBox="0 0 163.66 163.66"><defs><style>.cls-1{fill:none;stroke:#fff;stroke-linejoin:bevel;stroke-width:7px;}</style></defs><circle cx="81.83" cy="81.83" r="81.83"/><path class="cls-1" d="m49.92,138.49c18.68,11.27,42.78,14,62.99,5.67,9.2-3.79,18.16-10.87,21.3-20.64,4.06-12.63-2.68-26.45-15.02-31.15-8.92-3.39-19.03-1.07-27.28,3.15-11.55,5.91-22.38,13.79-35.55,6.95-6.63-3.44-11.78-11.13-19.62-12.02-8.14-.92-12.48,5.15-12.63,12.7-.17,8.94,4.96,16.58,10.73,22.98,4.37,4.84,9.48,8.98,15.07,12.36Z"/><path class="cls-1" d="m45.85,61.17c3.15-9.42,13.34-17.87,25.38-18.73,14.1-1.01,32.15,7.53,27.85,24.54-4.28,16.92-26.55,23.47-41.4,16.89-11.88-5.26-14.61-14.36-11.83-22.7Z"/><path class="cls-1" d="m131.42,31.43c-25.74,9.68-18,46.72,12.73,43.59"/><path class="cls-1" d="m22.64,44.81c13.2,11.87,7.97,31.25-7.73,33.53"/><path class="cls-1" d="m42.92,33.67c16.93-13.27,38.57-19.16,59.83-1.01"/></svg>