<?xml version="1.0" encoding="UTF-8"?><svg id="Layer_1" xmlns="http://www.w3.org/2000/svg" viewBox="0 0 163.66 163.66"><defs><style>.cls-1{fill:none;stroke:#fff;stroke-linejoin:bevel;stroke-width:7px;}</style></defs><circle cx="81.83" cy="81.83" r="81.83"/><path class="cls-1" d="m142.98,98.29c-.92-3.23-2.64-6.24-5.51-7.86-7.4-4.2-20.79,1.71-28.06,4.05-9.18,2.96-20.23,11.49-29.97,11.3-6.79-.13-5.62-10.61-7.58-15.26-2.82-6.67-7.86-9.57-15.14-8.45-8.41,1.25-17.04,5.05-23.79,10.2-4.24,3.23-7.82,7.6-9.09,12.78-1.51,6.15.44,12.77,4.03,17.98,16.71,24.25,52.57,24.59,78.23,18.6,18.92-4.42,40.85-18.27,37.46-40.62-.14-.91-.33-1.82-.58-2.72Z"/><path class="cls-1" d="m87.16,88.08c3.95-16.02-1.07-33.95-12.77-45.6"/><path class="cls-1" d="m48.06,38.38c-1.1-.37-2.28-.66-3.55-.84-8.46-1.24-18.66,3.73-22.02,11.82-5.34,12.86,8.83,24.95,21.17,22.86,17.71-3.01,20.94-28.24,4.4-33.84Z"/><path class="cls-1" d="m131.04,41.13c-13.7-4.93-32.86,9.13-24.5,24.01,5.47,9.75,18.76,11.9,27.98,5.76,11-7.33,9.44-25.12-3.48-29.78Z"/><path class="cls-1" d="m105.81,21.68c6.14-.3,12.37,1.75,17.13,5.64"/><path class="cls-1" d="m47.5,21.7c5.7.28,11.23,3.04,14.87,7.42"/></svg>