<?xml version="1.0" encoding="UTF-8"?><svg id="Layer_1" xmlns="http://www.w3.org/2000/svg" viewBox="0 0 163.66 163.66"><defs><style>.cls-1{fill:none;stroke:#fff;stroke-linejoin:bevel;stroke-width:7px;}</style></defs><circle cx="81.83" cy="81.83" r="81.83"/><path class="cls-1" d="m75.11,144.87c1.89.16,3.72.22,5.43.22,13.21-.03,30.54-2.77,35.37-17.25,3.88-11.62-5.26-21.07-15.69-24.15-12.37-3.65-26.11-2.65-37.75,2.97-3.79,1.83-7.4,4.16-10.14,7.34s-4.56,7.3-4.41,11.5c.48,13.56,16.11,18.45,27.2,19.37Z"/><path class="cls-1" d="m24.74,52.28c37.44,10.48,78.29,8.38,114.47-5.88"/><path class="cls-1" d="m51.21,35.05c15.63,7.36,41.42,6.62,56.6-1.63"/><line class="cls-1" x1="24.74" y1="90.17" x2="65.67" y2="73.49"/><line class="cls-1" x1="95.62" y1="72.31" x2="135.35" y2="88.08"/><path class="cls-1" d="m68.82,16.74c6.4,3.67,14.94,3.24,20.93-1.07"/><line class="cls-1" x1="43.43" y1="99.75" x2="64.02" y2="90.17"/><line class="cls-1" x1="99.04" y1="88.08" x2="118.99" y2="97.13"/></svg>