<?xml version="1.0" encoding="UTF-8"?><svg id="Layer_1" xmlns="http://www.w3.org/2000/svg" viewBox="0 0 163.66 163.66"><defs><style>.cls-1{fill:none;stroke:#fff;stroke-linejoin:bevel;stroke-width:7px;}</style></defs><circle cx="81.83" cy="81.83" r="81.83"/><path class="cls-1" d="m34.86,60.73c-6.54,3.03-10.76,10.46-10.02,17.63,1.04,10,11.06,17.08,20.84,15.18,3.98-.78,7.66-2.98,10.23-6.12,2-2.45,3.34-5.76,2.43-8.79-1.22-4.05-6.12-6.06-10.29-5.33-7.09,1.25-18.75,11.38-12.88,19.21"/><path class="cls-1" d="m137.46,67.8c-9.69-2.53-22.23-1.5-27.57,8.31-4.87,8.95.62,16.45,9.61,18.98,5.55,1.57,13.26,1.27,18.44-1.45,1.63-.86,3.08-2.22,3.64-3.98,2.19-6.88-5.17-9.78-10.54-8.99-6.79.99-15.53,5.46-13.62,13.65"/><path class="cls-1" d="m85.55,56.54c1.73,22.82-.8,40.39-8.93,61.79"/><path class="cls-1" d="m40.83,127.89c27.23-.63,47.43,7.73,62.85,20.81"/><path class="cls-1" d="m30.91,43.28c12.72.04,25.45-1.6,37.74-4.89"/><path class="cls-1" d="m108.28,35.59c12.01,6.34,24.63,11.5,37.64,15.39"/></svg>