<?xml version="1.0" encoding="UTF-8"?><svg id="Layer_1" xmlns="http://www.w3.org/2000/svg" viewBox="0 0 163.66 163.66"><defs><style>.cls-1{fill:none;stroke:#fff;stroke-miterlimit:10;stroke-width:7px;}</style></defs><circle cx="81.83" cy="81.83" r="81.83"/><path class="cls-1" d="m12.8,66.1c20.94-3.43,43.4,9.65,50.76,29.55"/><path class="cls-1" d="m98.66,72.71c-4.69-10.45-4.07-23.13,1.61-33.08,5.68-9.95,16.27-16.93,27.65-18.22"/><path class="cls-1" d="m37.32,132.1c17.35,15.22,41.54,20.28,63,13.2s39.64-26.14,47.37-49.64"/><path class="cls-1" d="m96.12,55.07c5.98,1,17.93,2.99,17.93,2.99l2.55-31.12"/><polyline class="cls-1" points="25.11 68.82 27.12 91.75 53.8 80.78"/><path class="cls-1" d="m64.08,27.47c-1,9.17-.45,18.52,1.93,27.45,2.44,9.17,7.16,16.61,11.79,24.73,8.58,15.07,16.8,35.6,6.51,51.87"/><polyline class="cls-1" points="104.25 105.04 136.52 73.3 154.42 80.79"/><polyline class="cls-1" points="16.32 119.24 33.48 108.04 65.12 120.11"/><path class="cls-1" d="m40.56,23.92c-3.4,13.49,1.35,26.49,10.64,35.53"/><path class="cls-1" d="m87.39,16.72c-5.23,7.93-7.73,19.12-5.19,31.02"/></svg>