<?xml version="1.0" encoding="UTF-8"?><svg id="Layer_1" xmlns="http://www.w3.org/2000/svg" viewBox="0 0 163.66 163.66"><defs><style>.cls-1{stroke-miterlimit:10;}.cls-1,.cls-2{fill:none;stroke:#fff;stroke-width:7px;}.cls-2{stroke-linejoin:bevel;}</style></defs><circle cx="81.83" cy="81.83" r="81.83"/><polyline class="cls-1" points="100.65 148.4 71.46 26.56 104.42 33.79 64.04 145.51"/><line class="cls-2" x1="116.07" y1="50.39" x2="151.41" y2="65.49"/><line class="cls-2" x1="30.68" y1="33.79" x2="53.18" y2="30.37"/><path class="cls-2" d="m38.56,47.52c-7.5,1.52-14.85,8.69-18.82,20.17-7.92,22.92,1.46,56.5,20.06,58.09,29.67,2.53,29.39-84.45-1.24-78.26Z"/><path class="cls-2" d="m117.99,76.37c-1.29,1.41-2.41,3.21-3.28,5.35-5.94,14.7.62,42.04,15.28,41.53,9.54-.33,12.28-17.37,11.19-27.22-.85-7.69-4.09-15.84-9.02-20.31-4.73-4.29-10.24-3.64-14.17.65Z"/></svg>