<?xml version="1.0" encoding="UTF-8"?><svg id="Layer_1" xmlns="http://www.w3.org/2000/svg" viewBox="0 0 163.7 163.7"><defs><style>.cls-1{fill:none;stroke:#fff;stroke-linejoin:bevel;stroke-width:7px;}</style></defs><circle cx="81.85" cy="81.85" r="81.83"/><path class="cls-1" d="m81.45,16.4c.32,40.21.71,85.44,1.04,125.65"/><path class="cls-1" d="m120.96,48.46c-26.02-.27-78.06.36-78.06.36"/><path class="cls-1" d="m42.9,65.39c0,17.23,0,34.46,0,51.69"/><line class="cls-1" x1="26.9" y1="76.47" x2="58.9" y2="76.47"/><path class="cls-1" d="m119.62,65.63c0,17.23,0,34.46,0,51.69"/><line class="cls-1" x1="103.62" y1="76.71" x2="135.62" y2="76.71"/><line class="cls-1" x1="57.85" y1="148.19" x2="107.58" y2="135.77"/><line class="cls-1" x1="26.99" y1="91.62" x2="26.99" y2="106.55"/><line class="cls-1" x1="56.78" y1="104.33" x2="56.78" y2="127.4"/><line class="cls-1" x1="135.62" y1="87.84" x2="135.62" y2="108.49"/><line class="cls-1" x1="106.14" y1="107.57" x2="106.14" y2="122.47"/></svg>