<?xml version="1.0" encoding="UTF-8"?><svg id="Layer_1" xmlns="http://www.w3.org/2000/svg" viewBox="0 0 163.66 163.66"><defs><style>.cls-1{stroke-miterlimit:10;}.cls-1,.cls-2{fill:none;stroke:#fff;stroke-width:7px;}.cls-2{stroke-linejoin:bevel;}</style></defs><circle cx="81.83" cy="81.83" r="81.83"/><path class="cls-1" d="m80.22,128.12c-13.06-29.71-10.13-57.37,3.07-78.27,0,0-.15,36.42,25.65,55.91"/><path class="cls-2" d="m17.61,67.76c23.96-2.02,46.15-18.33,55.24-40.59"/><path class="cls-2" d="m111.24,25.31c0,25.61,17.27,47.36,39.48,58.48"/><path class="cls-2" d="m81.83,150.61c13.84-12.56,31.76-20.56,50.35-22.49"/><path class="cls-1" d="m44.34,87.15s-4.54,11.55-5.04,12.84c-1.45,3.69-2.58,7.9-2.71,11.88-.14,4.37,2,9.23,6.54,10.42,3.99,1.05,7.57-1.52,9.32-4.98,2.64-5.22.84-11.29-1.37-16.32-1.15-2.62-2.54-5.11-3.87-7.64-.66-1.26-2.87-6.2-2.87-6.2Z"/><path class="cls-2" d="m87.13,103.7c0,11.27,9.69,16.77,9.69,16.77"/><path class="cls-2" d="m116.28,79.05c6.35,8.67,17.09,16.77,28.19,20.31"/></svg>