<?xml version="1.0" encoding="UTF-8"?><svg id="Layer_1" xmlns="http://www.w3.org/2000/svg" viewBox="0 0 163.71 163.71"><defs><style>.cls-1{fill:none;stroke:#fff;stroke-linejoin:bevel;stroke-width:7px;}</style></defs><circle cx="81.85" cy="81.85" r="81.83"/><path class="cls-1" d="m93.33,42.28c.26,6.41-1.33,14.9-7.87,17.8-9.29,4.12-17.02-4.77-17.49-13.45-.39-7.23,2.62-15.41,7.83-20.49,3.68-3.58,8.97-5.44,14.08-4.95,12.71,1.21,19.46,14.65,22.99,25.39,4.85,14.77,6.76,31.53,3.54,46.99-2.98,14.33-14.28,36.38-32.2,33.08-26.03-4.8-13.08-42.05-22.31-58.62-6.96-12.51-21.82-18.15-33.72-8.6-7.31,5.87-10.63,17.32-6.61,25.98,2.12,4.56,8.42,7.21,12.81,4.11,4.33-3.06,4.68-10.3,3.36-14.91"/><path class="cls-1" d="m49.4,132.17c15.82,23.86,62.76,19.71,74.47-1.51"/><path class="cls-1" d="m136.6,62.86c-4.76,6.69-8.72,18.49-2.29,25.47,3.33,3.62,9.37,3.92,13.25,1,5.11-3.85,3.79-10.59.87-15.42"/><path class="cls-1" d="m33,106.1c-1.01,7.41,6.7,14.93,13.47,10.63,6.33-4.02,7.1-14.86,2.89-20.99"/></svg>