<?xml version="1.0" encoding="UTF-8"?><svg id="Layer_1" xmlns="http://www.w3.org/2000/svg" viewBox="0 0 163.66 163.66"><defs><style>.cls-1{stroke-miterlimit:10;}.cls-1,.cls-2{fill:none;stroke:#fff;stroke-width:7px;}.cls-2{stroke-linejoin:bevel;}</style></defs><circle cx="81.83" cy="81.83" r="81.83"/><path class="cls-2" d="m80.2,16.92c-14.67-9.93-35.71,5.9-33.52,22.47.92,6.99,5.23,12.58,10.82,16.63,6.98,5.06,15.7,8.51,24.17,6.91,4.97-.94,9.59-4,12.41-8.2,2.76-4.11,4.43-11.12-.01-14.78-3.65-3-9.36-1.93-12.95.61-5.17,3.66-7.03,10.75-6.01,17.01,1.5,9.17,8.77,17.16,17.78,19.43,9.01,2.27,19.25-1.37,24.73-8.88,2.67-3.65,4.39-9.7,1.77-13.79-3.84-6.03-12.02-3.75-15.59,1.31-4.2,5.95-3.36,14.66,1.21,20.32,4.58,5.67,12.27,8.33,19.53,7.7,3.17-.28,6.34-1.25,8.91-3.17,4.57-3.43,6.28-9.89,6.34-15.33.06-5.92-1.21-11.85-3.7-17.22"/><path class="cls-2" d="m16.21,83.61c10.19-2.37,22.05-1.01,30.61,5.32,7.66,5.66,12.84,14.64,13.82,24.13.67,6.49.49,13.02-.24,19.51-.55,4.88-1.46,9.73-2.78,14.46"/><path class="cls-2" d="m96.21,149.67c-.78-11.63,3.28-24.72,12.61-32.2,10.22-8.2,27.42-7.35,33.83,5.33"/><polyline class="cls-1" points="95.46 93.82 77.91 102.34 81.89 130.44"/></svg>