<?xml version="1.0" encoding="UTF-8"?><svg id="Layer_1" xmlns="http://www.w3.org/2000/svg" viewBox="0 0 163.7 163.7"><defs><style>.cls-1{fill:none;stroke:#fff;stroke-linejoin:bevel;stroke-width:7px;}</style></defs><circle cx="81.85" cy="81.85" r="81.83"/><path class="cls-1" d="m102.88,104.71c11.11,3.19,21.92,11.48,22.25,23.84.21,7.52-4.55,17-13.25,16.2-.6-.05-1.19-.16-1.77-.3-4.75-1.12-7.08-5.42-10.27-8.67-6.4-6.52-16.44-6.79-24.06-2.29-5.75,3.4-10.79,8.71-17.6,9.91-6.76,1.19-13.34-3.26-15.02-9.86-2.86-11.23,9.54-20.46,18.24-24.46,11.43-5.26,25.05-7.49,37.49-5.29,1.32.23,2.65.54,3.98.92Z"/><path class="cls-1" d="m63.57,91.22c7.56-3.52,15.83-5.72,24.22-5.79,8.51-.07,16.58,2.81,24.41,5.74"/><path class="cls-1" d="m33.77,99.5c5.4-13.7,18.5-22.73,32.27-26.74,12.27-3.58,25.49-3.72,37.98-1.21,6.5,1.3,12.51,4.16,18.79,6.17,9.28,2.96,20.51.2,23.25-10.25,1.88-7.18-.6-15.57-4.66-21.59-4.66-6.92-12.43-12.27-20.89-12.9-7.96-.6-18.72,4.27-20.46,12.84-2.4,11.79,14.72,18.45,23.86,14.46,3.06-1.34,5.38-4.86,4.33-8.03-.67-2-2.51-3.43-4.5-4.12s-4.14-.75-6.24-.76"/><path class="cls-1" d="m87.88,29.48c-11.62-4.3-24.94-6.88-36.95-3.36-7.99,2.35-16.38,8.38-20.42,15.76-3.77,6.89-1.49,15.6,5.73,19.14,8.55,4.19,28.08,1.86,29.86-9.74,1.69-10.95-16.27-11.48-19.09-2.31"/></svg>