<?xml version="1.0" encoding="UTF-8"?><svg id="Layer_1" xmlns="http://www.w3.org/2000/svg" viewBox="0 0 163.66 163.66"><defs><style>.cls-1{stroke-miterlimit:10;}.cls-1,.cls-2,.cls-3{fill:none;stroke:#fff;stroke-width:7px;}.cls-2{stroke-linejoin:round;}.cls-3{stroke-linejoin:bevel;}</style></defs><circle cx="81.83" cy="81.83" r="81.83"/><path class="cls-2" d="m41.8,75.71c.12,3.1-.43,6.13-2.14,8.82-2.15,3.38-6.29,5.62-10.22,4.83-7.44-1.49-7.23-10.69-3.17-15.41,6.09-7.07,14.72-9.84,23.67-11.13,10.06-1.45,27.7.61,31.02-12.32,2.12-8.26-4.86-15.63-11.57-19.23-4.73-2.54-10.09-3.74-15.45-4.02-3.78-.2-7.65.07-11.18,1.45-6.71,2.61-10.29,9.07-9.75,16.15.46,6.02,3.02,11.64,5.24,17.25,1.61,4.07,3.34,8.92,3.53,13.61Z"/><path class="cls-2" d="m125.32,68.55c6.47,3.81,12.27,9.49,13.77,17.14,3.3,16.84-17.68,22.27-25.88,8.86-5.36-8.78-1.29-18.13,3.42-26.15,4.78-8.12,15.94-26.07,6.21-34.35-3.33-2.84-8.72-2.85-12.33-.62-4.41,2.72-6.72,8.17-6.43,13.35.7,12.49,11.87,16.26,21.23,21.77Z"/><polyline class="cls-1" points="34.89 108.8 77.05 104.06 88.39 67.89"/><line class="cls-2" x1="64.74" y1="145.89" x2="124.19" y2="126.4"/><polyline class="cls-1" points="72.7 121.3 92.42 119.55 95.12 96.56"/><path class="cls-3" d="m70.89,13.5c9.35,3.34,16.84,11.5,19.35,21.11,4.06-9.39,13.3-16.34,23.45-17.63"/></svg>