<?xml version="1.0" encoding="UTF-8"?><svg id="Layer_1" xmlns="http://www.w3.org/2000/svg" viewBox="0 0 163.66 163.66"><defs><style>.cls-1{fill:none;stroke:#fff;stroke-linejoin:bevel;stroke-width:7px;}</style></defs><circle cx="81.83" cy="81.83" r="81.83"/><path class="cls-1" d="m30.18,68.47c-1.59,6.24-1.07,14.78,3.9,19.48,6.83,6.45,15.72,1.44,23.27-.59,9.81-2.64,15.94,3,22.19,10.04,14.94,16.83,43.56,16.78,49.81-8.23"/><path class="cls-1" d="m47.11,73.59c9.94-5.78,22.67-6.49,33.2-1.85,10.52,4.65,18.58,14.53,21.01,25.77"/><path class="cls-1" d="m30.22,41.26c23.2,8.84,47.02,6.58,69.35-13.92"/><path class="cls-1" d="m114.62,30.88c-1.36,9.87.81,20.18,6.01,28.67,5.2,8.49,13.41,15.1,22.82,18.37"/><path class="cls-1" d="m100.54,46.78c-5.36,3.98-9.36,9.76-11.21,16.18"/><path class="cls-1" d="m32.36,101.71c-1.39,12.52,6.54,32.69,18.53,41.96"/><path class="cls-1" d="m53.1,104.98c.92,15.84,9.82,31.01,23.18,39.56"/><path class="cls-1" d="m75.01,109.33c.39,10.36,8.02,24.53,23.28,33.79"/><path class="cls-1" d="m99.82,119.18c2.37,8.66,9.81,15.72,18.58,17.64"/><path class="cls-1" d="m130.18,36.9c1.24,9.93,7.56,19.09,16.41,23.76"/><path class="cls-1" d="m40.89,25.98c13.95,6.27,31.65,2.94,42.35-7.98"/><path class="cls-1" d="m120.67,119.13c1.79,3.42,6.5,7.65,11.95,8.74"/></svg>