<?xml version="1.0" encoding="UTF-8"?><svg id="Layer_1" xmlns="http://www.w3.org/2000/svg" viewBox="0 0 163.66 163.66"><defs><style>.cls-1{fill:none;stroke:#fff;stroke-linejoin:bevel;stroke-width:7px;}</style></defs><circle cx="81.83" cy="81.83" r="81.83"/><path class="cls-1" d="m32.53,35.39c3.39.62,6.19,3.27,7.38,6.44,1.93,5.12-1.7,9.5-3.47,14.03-1.48,3.79-.87,7.21,1.41,10.52,2.46,3.58,6.35,6.12,7.21,10.65.7,3.7-.77,7.44-2.87,10.43-2.13,3.04-2.53,6.31-.42,9.58,1.44,2.24,3.76,3.51,5.61,5.35,2.08,2.06,2.69,5.09,2.45,7.93-.19,2.19-.73,4.35-.77,6.55-.12,6.61,5.71,7.21,9.32,11.42,3.11,3.62,1.72,8.61,2.2,13.1"/><path class="cls-1" d="m120.04,34.64c4.79.04,9.28,3.85,10.09,8.57.44,2.57-.07,4.63-1.42,6.8-3.4,5.51-2.17,13.61,4.13,16.33,2.18.94,4.76,1.8,6.06,3.94,1.02,1.68.98,3.82.47,5.73-1.01,3.78-4.15,7.5-3.12,11.61,1.22,4.82,7.59,6.53,8,11.71.14,1.72-.58,3.39-1.47,4.87-1.46,2.43-3.55,4.84-3.52,7.84.02,2.03,1.12,3.87,2.05,5.67.58,1.13.92,2.16,1.07,3.12"/><path class="cls-1" d="m100.62,15.18c2.89.39,5.42,2.45,6.59,5.09,1.48,3.32.14,6.31-1.59,9.25-2.04,3.48-5.12,8.07-2.55,12.08,1.64,2.56,4.71,3.48,6.73,5.63,2.12,2.26,2.65,5.87,1.26,8.63-.74,1.47-1.97,2.63-2.8,4.04-.73,1.24-1.24,2.69-1.05,4.12.26,1.98,1.77,3.56,3.33,4.8,1.56,1.24,3.3,2.36,4.39,4.03,1.81,2.79-.02,5.01-1.1,7.6-.4.97-.64,2.06-.36,3.08.66,2.43,3.63,3.71,4.83,5.91.91,1.67.77,3.51.35,5.3-.55,2.39-1.15,4.67-.33,7.08.13.38.29.75.46,1.11"/><path class="cls-1" d="m45.36,18.04c5.22,1.41,11.03,4.74,11.18,10.14.1,3.74-2.11,6.92-3.6,10.18-1.15,2.52-1.86,5.54-.62,8.02,1.57,3.14,5.59,3.64,8.2,5.57,4.02,2.99,1.5,7.73.02,11.29-.72,1.73-1.16,3.73-.4,5.44.96,2.16,3.17,3.32,4.07,5.62,1.85,4.75-1.41,9.07-.98,13.86.53,5.93,6.53,6.7,9.74,10.65,2.71,3.33,4.31,8.14,3.28,12.4"/><path class="cls-1" d="m15.4,66.78c4.02,1.62,7.78,4.38,9.02,8.72,1.98,6.91-3.86,11.85-3.57,18.29.19,4.4,3.94,7,6.24,10.33,3.39,4.91.65,9.33,1.23,14.66.6,5.48,5.9,7.31,9.45,10.61,2.64,2.46,3.12,6.25,3.12,9.68"/><path class="cls-1" d="m84.46,142.34c.47.2.94.38,1.43.54,8.52,2.77,40.16-.7,30.09-16.1-2.02-3.09-5.5-4.98-9.07-5.94-7.39-1.99-15.67-.35-21.75,4.31-4.02,3.09-7.93,10.01-4.13,14.7.9,1.11,2.12,1.9,3.44,2.48Z"/><path class="cls-1" d="m70.21,11.89c3.12,1.25,6.02,3.87,6.95,7.18,1.22,4.36-2.66,7.96-1.97,12.27.5,3.12,3.18,5.16,4.53,7.86,1.71,3.42-.32,6.99-1.02,10.37-1.06,5.2,2.89,8.3,6.27,11.46,2.55,2.38,4.24,5.33,4.07,8.89-.2,4.07-3.78,8.36-2.36,12.5,1.66,4.86,9,3.28,11.25,7.76,1.92,3.82-.42,8.14.38,12.14"/></svg>