<?xml version="1.0" encoding="UTF-8"?><svg id="Layer_1" xmlns="http://www.w3.org/2000/svg" viewBox="0 0 163.7 163.7"><defs><style>.cls-1{fill:none;stroke:#fff;stroke-linejoin:bevel;stroke-width:7px;}</style></defs><circle cx="81.85" cy="81.85" r="81.83"/><path class="cls-1" d="m34.08,126.21c8.97-8.35,15.19-19.55,18.94-31.13,3.1-9.57,5.43-19.95,4.58-30.06-.89-10.62-7.3-22.73-19.83-20.78-17.89,2.8-23.1,25.53-17.82,40.18,7.64,21.15,30.62,31.33,51.83,25.66,18.77-5.02,28.79-23.85,27.74-42.5-.36-6.39-2.87-13.47-7.49-18.03-5.99-5.93-15.28-5.35-20.03,1.8-2.5,3.76-3.24,8.48-2.84,12.98,1.62,18.21,17.6,30.36,35.19,31.62,8.35.6,17.02-1.27,23.81-6.33,12.82-9.54,17.19-27.93,13.7-43.02"/><path class="cls-1" d="m129.04,30.56c-2.02,3.92-4.72,7.79-8.75,9.56-3.52,1.55-7.7,1.26-11.21-.32s-6.39-4.36-8.54-7.55"/><path class="cls-1" d="m120.34,143.84c-.61-7.47.23-15.81,4.6-22.13,5.29-7.65,15.28-9.74,24.05-8.45"/><path class="cls-1" d="m75.86,25.01c-11.28,9.51-22.66,9.03-34.14-1.54"/><path class="cls-1" d="m96.01,134.28c.71.28,1.46.42,2.26.38,10.09-.49,6.69-22.73-4.29-17.6-6.06,2.83-3.76,14.88,2.03,17.21Z"/><path class="cls-1" d="m50.32,140.41c12.35-6.1,22.65-3.28,30.92,8.23"/></svg>