<?xml version="1.0" encoding="UTF-8"?><svg id="Layer_1" xmlns="http://www.w3.org/2000/svg" viewBox="0 0 163.66 163.66"><defs><style>.cls-1{fill:none;stroke:#fff;stroke-linejoin:bevel;stroke-width:7px;}</style></defs><circle cx="81.83" cy="81.83" r="81.83"/><path class="cls-1" d="m40.9,87.78c5.04,8.98,12.63,16.84,21.73,21.5,6.57,3.36,15.85,6.41,23.1,3.59,7.24-2.82,11.23-9.63,10.91-17.55-.32-7.9-4.63-14.59-9.17-20.66-5.31-7.09-11.86-13.14-19.03-18.14-5.72-3.98-12.79-7.44-19.8-6.76-6.28.61-11.48,4.49-12.87,11.06-1.89,8.94.38,18.48,5.14,26.96Z"/><path class="cls-1" d="m92.21,52.35c-15.19,14.14-27.23,38.84-20.34,59.69,5.35,16.18,21.79,24.31,38.13,21.07,16.11-3.19,26.79-17.01,31.64-31.95,5.22-16.09,6.04-43.83-8.36-55.93-12.42-10.44-30.47-2.66-40.84,6.9-.08.07-.16.14-.23.22Z"/><path class="cls-1" d="m20.56,69.65c.34,16.76,7.73,33.32,19.8,44.81,6.18,5.88,13.52,10.46,21.49,13.17,10.35,3.53,22.4,3.09,31.94-2.9,10.18-6.4,15.41-18.64,17.36-30.4,4.24-25.66-10.12-50.38-29.96-64.74-2.17-1.57-4.43-3.03-6.76-4.35-9.77-5.53-22.01-4.74-31.58.72-.94.54-1.86,1.11-2.76,1.72-13.37,9.1-19.87,25.75-19.54,41.96Z"/><path class="cls-1" d="m62.71,58.22c-2.57,8.57-3.2,17.47-.19,25.95,2.28,6.44,7.08,11.23,13.41,13.27,9.22,2.98,18.34-1.61,24.38-8.84,6.7-8.03,9.33-18.84,11.43-28.99,2.11-10.18,4.87-21.3,1.71-31.58-6.28-20.43-26.8-10.75-35.79,1.72-5.82,8.08-11.83,18.03-14.95,28.47Z"/><path class="cls-1" d="m45.85,142.64c15.97-.41,33.58,1.11,51.94,9.99"/></svg>