<?xml version="1.0" encoding="UTF-8"?><svg id="Layer_1" xmlns="http://www.w3.org/2000/svg" viewBox="0 0 163.66 163.66"><defs><style>.cls-1{fill:none;stroke:#fff;stroke-linejoin:bevel;stroke-width:7px;}</style></defs><circle cx="81.83" cy="81.83" r="81.83"/><path class="cls-1" d="m46.03,43.27c1.6,4.04,5.25,7.19,10.01,8.22,7.37,1.6,15.98-2.7,17.35-10.49,1.26-7.13-4.29-13.81-10.89-15.79-6.83-2.06-14.11,2.19-16.52,8.76-1.19,3.25-1.07,6.49.05,9.3Z"/><path class="cls-1" d="m126.78,39.39c-.08,3.4-1.79,6.6-5.51,7.82-8.52,2.82-18.52-5.61-14.16-14.55,3.33-6.81,12.87-5.88,17.17-.61,1.67,2.05,2.56,4.75,2.5,7.33Z"/><path class="cls-1" d="m112.14,79.57c-.49,4.42,1.65,9.01,5.45,11.6,10.2,6.93,32.5-1.53,24.87-15.99-2.67-5.06-8.8-7.41-14.27-7.49-5.55-.08-11.64,2.58-14.56,7.46-.83,1.39-1.31,2.9-1.48,4.42Z"/><path class="cls-1" d="m25.95,88.52c.95.4,1.93.71,2.94.91,5.31,1.08,12.09-.42,13.88-6.18,1.46-4.69-.97-10.09-4.41-13.29-4.14-3.85-11.07-5.36-16.25-2.81-4.15,2.05-6.42,6.71-5.52,11.24.92,4.63,5.15,8.36,9.35,10.13Z"/><path class="cls-1" d="m82.04,72.76c-13.71-1.8-15.65,17.32-2.36,20,3.54.71,7.48.05,10.04-2.65,6.28-6.59.19-16.31-7.69-17.35Z"/><path class="cls-1" d="m41.84,109.87c9.08-1.17,17.15,8.29,9.83,15.99-6.06,6.38-18.74,3.97-20.05-5.47-.86-6.18,4.47-9.78,10.22-10.53Z"/><path class="cls-1" d="m126.29,117.35c2.92.44,5.52,2.18,6.59,5.45,1.26,3.87-.72,8.34-4.36,10.1-3.44,1.67-7.86,1.08-10.93-1.14-1.61-1.17-2.85-2.94-3.1-4.91-.78-6.18,6.41-10.32,11.79-9.51Z"/><path class="cls-1" d="m73.71,120.3c-1.28,2.39-2.25,4.89-2.95,7.04-1.74,5.42-3.04,11.98-1.4,17.58,1.36,4.66,6.13,7.6,10.9,6.96,4.45-.6,7.72-3.87,9.8-7.65,3.44-6.25,4.67-13.21,4.53-20.28-.05-2.77-.49-5.59-1.83-8.02-1.96-3.57-5.59-5.52-9.62-4.56-4.41,1.05-7.42,5.14-9.45,8.92Z"/><path class="cls-1" d="m143.35,100.3c4.86-3.29,8.62-8.17,10.55-13.71"/><path class="cls-1" d="m50.43,100.47c5.43,1.12,10.35,4.53,13.32,9.21"/><path class="cls-1" d="m60.81,76.16c.3-6.79,7.41-13.58,14.22-13.56"/><path class="cls-1" d="m96.71,46.21c1.67,6.25,7.13,11.32,13.48,12.53,1.72.33,3.47.39,5.21.45"/><path class="cls-1" d="m23,56.07c6.12-1.23,12.73.2,17.81,3.84"/><path class="cls-1" d="m74.65,19.98c4.65,3.83,7.83,9.41,8.76,15.37"/><path class="cls-1" d="m106.74,115.47c2.14-5.62,9.92-9.81,15.8-8.43"/></svg>