<?xml version="1.0" encoding="UTF-8"?><svg id="Layer_1" xmlns="http://www.w3.org/2000/svg" viewBox="0 0 163.66 163.66"><defs><style>.cls-1{fill:none;stroke:#fff;stroke-linejoin:bevel;stroke-width:7px;}</style></defs><circle cx="81.83" cy="81.83" r="81.83"/><path class="cls-1" d="m41.84,62.05c-5.13,4.36-8.17,12.13-5.53,18.6,2.12,5.18,7.66,8.72,13.24,8.59,15.64-.36,22.85-17.33,27.81-29.66,1.96-4.89,3.9-9.79,5.55-14.8"/><path class="cls-1" d="m101.87,69.54c-1.42,4.07-2.45,9.51.67,13.07,3.29,3.76,8.89,3.27,13,1.28,9-4.36,13.36-13.59,16.41-22.61.54-1.61,1.04-3.23,1.52-4.85"/><path class="cls-1" d="m89.38,95.09c10.09,8.81,4.49,30.09,4.49,30.09,0,0-7.85-10.83-18.97-12.83"/><path class="cls-1" d="m140.99,99.81c-7.25,11.7-11.69,24.79-11.53,39.78"/><path class="cls-1" d="m65.11,149.32c-5.98-16.52-17.03-27.9-31.64-35.66"/><path class="cls-1" d="m110.65,137.19c-5.72,5.34-13.15,8.95-22.35,10.61"/><path class="cls-1" d="m104.37,34.28c11.89-2.16,24.63.91,34.24,8.24"/><path class="cls-1" d="m30.79,47.62c1.88-6.9,6.94-12.75,13.25-16.02,7.44-3.86,16.22-3.59,24.22-1.94l.27.06c.79.17,1.57.35,2.35.54"/><path class="cls-1" d="m15.38,89.54c8.1,3.69,16.21,7.38,24.31,11.08"/><path class="cls-1" d="m131.6,90.65c5.28-4.01,10.8-7.7,16.52-11.05"/></svg>