<?xml version="1.0" encoding="UTF-8"?><svg id="Layer_1" xmlns="http://www.w3.org/2000/svg" viewBox="0 0 163.67 163.67"><defs><style>.cls-1{fill:none;stroke:#fff;stroke-linejoin:bevel;stroke-width:7px;}</style></defs><circle cx="81.84" cy="81.84" r="81.83"/><path class="cls-1" d="m32.72,71.72c-3.07-4.01-.96-9.56,2.72-12.37,4.76-3.62,10.68-.58,16.06-.72,7.04-.19,8.74-6.7,14.46-9.35,5.58-2.58,12.68,1.39,18.35-.1,6.3-1.67,7.29-10.06,13.27-11.66,4.51-1.21,11.49,1.51,13.61,5.77"/><path class="cls-1" d="m108.63,47.18c6.47-6.84,16.13-4.61,21,2.85,5.72,8.76,5.26,24.57-7.41,26.5-11.13,1.7-19.7-10.11-18-20.36.58-3.47,2.18-6.63,4.42-9Z"/><path class="cls-1" d="m35.11,105.15c6.14,2.47,14.05,2.62,19.46-1.65,5.83-4.61,4.41-13.28,1-18.94-3.72-6.18-10.32-10.77-17.35-12.33-4.39-.97-9.62-.76-13.36,2.02-3.53,2.62-4.9,7.5-4.52,11.72.66,7.34,5.28,13.87,11.55,17.58,1.01.6,2.09,1.13,3.22,1.59Z"/><path class="cls-1" d="m113.76,126.06c.61,9.77-11.29,14.99-19.57,14.03-8.86-1.03-15.45-5.3-18.47-13.43-2.85-7.65-1.82-16.37,3.89-22.44.57-.61,1.18-1.18,1.81-1.71,1.5-1.27,3.21-2.27,5.07-2.92,6.12-2.13,13.78-.48,17.36,5.21,3.91,6.22,1.65,16.99-7.03,16.85-3.4-.06-6.72-1.74-9.47-3.63"/><path class="cls-1" d="m135.18,85.52c-7.38,10.46-8.59,29.94,7.48,37.18"/><path class="cls-1" d="m42.84,119.47c15.62-.78,23.05,20.47,15.25,30.86"/><path class="cls-1" d="m36.96,45.77c15.02-9.08,18.85-19.26,20.56-31.96"/><path class="cls-1" d="m59.17,40.36c8.25-5.59,17.48-16.59,15.07-32.15"/><path class="cls-1" d="m79.12,38.7c6.48-4.9,15.13-15.89,12.59-30.31"/><path class="cls-1" d="m68.89,77.46c10.19,4.18,17.01,1.16,20.47-9.07"/></svg>