<?xml version="1.0" encoding="UTF-8"?><svg id="Layer_1" xmlns="http://www.w3.org/2000/svg" viewBox="0 0 163.71 163.71"><defs><style>.cls-1{fill:none;stroke:#fff;stroke-linejoin:bevel;stroke-width:7px;}</style></defs><circle cx="81.85" cy="81.85" r="81.83"/><path class="cls-1" d="m52.12,137.34c28.99-26.44,61.03-62.41,34.74-101.05"/><path class="cls-1" d="m71.9,58.57c14.73,9.24,41.31,3.09,41.66-17.38.3-17.1-18.85-27.8-34.22-26.44-17.7,1.56-24.78,21.01-15.88,35.41,2.14,3.47,5.06,6.29,8.44,8.41Z"/><path class="cls-1" d="m69.74,149.37c8.57-6.4,22.51-8.26,37.28-4.1"/><path class="cls-1" d="m23.83,82.45c11.61,13.42,15.59,33.02,10.13,49.9"/><path class="cls-1" d="m27.13,58.47c23.76,16.51,37.39,49.74,21.22,86.98,20.89-20.76,43.41-23.07,69.77-12.3"/><path class="cls-1" d="m44.91,30.31c-8.89,2.15-14.57,6.54-18.01,12.5"/><path class="cls-1" d="m135.1,98.63c3.23,9.25,2.55,18.49-3.85,27.6"/><path class="cls-1" d="m61.76,74.37c12.12,19.33,33.26,26.89,55.26,26.41"/><path class="cls-1" d="m129.32,85.31c-.32-.08-.64-.18-.97-.29-10.25-3.51-11.51-22.88,1.78-22.33,5.24.22,10.49,5.1,11.76,10.11,2.03,8.01-4.73,14.52-12.57,12.52Z"/></svg>