<?xml version="1.0" encoding="UTF-8"?><svg id="Layer_1" xmlns="http://www.w3.org/2000/svg" viewBox="0 0 163.71 163.71"><defs><style>.cls-1{fill:none;stroke:#fff;stroke-linejoin:bevel;stroke-width:7px;}</style></defs><circle cx="81.85" cy="81.85" r="81.83"/><path class="cls-1" d="m29.08,52.14c13.86,11.56,35,15.18,52.52,14.71,15.08-.41,43.05-4.37,40.95-25.54-1.57-15.84-21.25-20.82-33.34-13.35-22.54,13.93-4.86,38.82,10.31,49.75,12.44,8.96,27.06,14.53,41.46,19.47"/><path class="cls-1" d="m140.4,65.81c-4.27,18.76-13.25,33.52-32.62,39.43"/><path class="cls-1" d="m51.69,35.5c-9.01,16.86-8.24,34.66,6.35,50.22"/><path class="cls-1" d="m83.06,85.3c4.72,11.5,4.72,24.79.18,36.35"/><path class="cls-1" d="m39.57,139.22c8.56-7.15,20.39-10.84,31.21-8.13,10.82,2.71,19.95,12.5,20.35,23.65"/><path class="cls-1" d="m16.97,69.15c2.2,24.13,29.7,38.56,51.64,38.89"/><path class="cls-1" d="m102.41,119.76c11.46,7.53,23.99,9.02,38,2.04"/></svg>