<?xml version="1.0" encoding="UTF-8"?><svg id="Layer_1" xmlns="http://www.w3.org/2000/svg" viewBox="0 0 163.66 163.66"><defs><style>.cls-1{stroke-miterlimit:10;}.cls-1,.cls-2{fill:none;stroke:#fff;stroke-width:7px;}.cls-2{stroke-linejoin:bevel;}</style></defs><circle cx="81.83" cy="81.83" r="81.83"/><path class="cls-1" d="m90.3,46.46c-16.2,0-30.49,17.98-17.85,31.98,6.45,7.14,16.81,7.61,25.32,4.23l-18.4,52.22"/><path class="cls-2" d="m29.26,61.93c-6.37.28-10.55,6.53-10.72,12.48-.19,6.87,4.88,12.36,11.18,14.37,6.5,2.07,12.74.05,17.14-5.07,3.79-4.41,4.77-12.57,0-16.67"/><path class="cls-2" d="m120.85,68c-5.29,5.97-1.85,14.8,4.4,18.39,7.35,4.23,16.68.13,19.66-7.97,2.64-7.17-2.19-16.49-10.34-16.49"/><path class="cls-2" d="m37.05,125.93c26.02,13.67,62.57,14.93,90.54,4.03"/><path class="cls-2" d="m108.07,39.61c6.49,9.75,24.32,9.45,27-3.31"/><path class="cls-2" d="m27.37,38.4c4.45,13.2,25.54,13.01,28.17-1.29"/><line class="cls-1" x1="71.56" y1="104.32" x2="65.87" y2="119.6"/><line class="cls-1" x1="108.07" y1="104.32" x2="101.24" y2="124.04"/></svg>