<?xml version="1.0" encoding="UTF-8"?><svg id="Layer_1" xmlns="http://www.w3.org/2000/svg" viewBox="0 0 163.7 163.7"><defs><style>.cls-1{fill:none;stroke:#fff;stroke-linejoin:bevel;stroke-width:7px;}</style></defs><circle cx="81.85" cy="81.85" r="81.83"/><path class="cls-1" d="m133.74,91.8c-7.78-3.58-14.89-8.97-20.48-15.45-4.68-5.44-7.56-12.14-10.51-18.6-2.51-5.51-5.93-10.71-9.8-15.36-7.78-9.35-18.46-16.29-30.96-16.23-.79,0-1.57.03-2.36.09-.66.05-1.33.11-1.99.2-6.14.78-12.1,3.28-16.59,7.62"/><path class="cls-1" d="m72.77,110.01c4.28-4.07,7.33-9.41,8.56-15.3,3.88-18.47-11.53-41.28-31.33-40.87-12.47.26-21.66,9.29-25.61,20.58-3.04,8.71-2.49,18.74,1.76,26.96,7.92,15.32,28.21,21.62,42.84,11.68,1.34-.91,2.6-1.93,3.78-3.04Z"/><path class="cls-1" d="m112.37,139.88c8.46-22.46-.91-42.83-.91-42.83,0,0-25.85,31.34-47.05,41.64"/><path class="cls-1" d="m137.95,70.23c-7.28-3.32-12.78-9.26-15.84-16.4-6.05-14.13-6.2-22.11-24.26-36.09-.61-.47-1.3-.82-1.96-1.21"/><path class="cls-1" d="m132.53,120.27c13.48-9.77,20.9-27.27,18.55-43.75"/><path class="cls-1" d="m81.18,155.81c9.88-6.68,17.2-17.04,20.21-28.58"/></svg>