<?xml version="1.0" encoding="UTF-8"?><svg id="Layer_1" xmlns="http://www.w3.org/2000/svg" viewBox="0 0 163.67 163.67"><defs><style>.cls-1{fill:none;stroke:#fff;stroke-miterlimit:10;stroke-width:7px;}</style></defs><circle cx="81.83" cy="81.83" r="81.83"/><path class="cls-1" d="m87.72,111.72c-5.24-8.97-8.82-19.04-11.28-29.11-2.7-11.07-4.31-23.29-1.71-34.53,2.81-12.15,13.22-22.76,26.27-22.69,19.93.11,32.27,20.6,32.63,38.64.23,11.31-4.04,24.42-15.1,29.38-8.1,3.64-17.53,2.15-22.51-5.5-3.78-5.8-4.55-13.52-2.55-20.08,1.31-4.29,3.92-8.18,7.76-10.58,2.72-1.7,5.92-2.34,9.1-2"/><path class="cls-1" d="m62.34,123.56c2.56-11.57,3.16-23.44,2.26-35.24-1.22-15.85-3.76-39.22-21.92-44.75-14.47-4.4-25.03,9.97-25.75,22.93-.62,11.08,5.29,26.63,17.69,28.54,6.78,1.04,12.3-3.19,12.94-9.93.51-5.41-2.05-11.46-7.36-13.52-1.57-.61-3.28-.74-4.94-.51"/><path class="cls-1" d="m126.85,110.45c-9.61,1.61-23.02,5.74-28.37,14.7-2.87,4.81-.44,9.91,5.24,10.24,8.44.49,15.98-6.98,22.15-11.91"/><polyline class="cls-1" points="46.39 107.06 45.95 133.18 80.22 145.3"/></svg>