<?xml version="1.0" encoding="UTF-8"?><svg id="Layer_1" xmlns="http://www.w3.org/2000/svg" viewBox="0 0 163.7 163.7"><defs><style>.cls-1{fill:none;stroke:#fff;stroke-linejoin:bevel;stroke-width:7px;}</style></defs><circle cx="81.85" cy="81.85" r="81.83"/><path class="cls-1" d="m144.53,105.08c-.51,7.52-8.96,27.99-19.18,18.48-4.42-4.11-3.01-11.67-1.77-16.84,1.52-6.36,3.33-12.65,4.71-19.04,2.68-12.46,3.71-26.06-3.55-37.24-4.9-7.55-14.76-12.42-23.11-6.93-9.01,5.92-7.67,16.86-7.97,26.25-.34,10.86.41,22.25-3.19,32.68-2.16,6.25-7.39,16.68-15.7,13.75-1.62-.57-2.95-1.76-4-3.12-9.5-12.28-1.64-32.1.56-45.48,1.41-8.57,2.7-21.64-7.51-25.41-8.85-3.27-18.7,2.25-22.94,10.11-8.36,15.51-8.56,33.52-5.67,50.53.99,5.8,3,12.3,1.11,18.08-.19.59-.43,1.16-.71,1.72-1.91,3.82-6.67,3.06-9.74,1.21-5.65-3.39-8.69-12.99-9.52-19.15"/><path class="cls-1" d="m111.82,68.12c-3.7,18.65-5.8,37.61-6.29,56.62"/><path class="cls-1" d="m53.67,73.44c-2.2,17.14-2.17,35.76.07,52.86"/><path class="cls-1" d="m43.42,30.69c27.99-13.65,62.47-13.12,90.04,1.36"/><path class="cls-1" d="m84.26,132.47c-3.8-.08-8.28,1.09-11.28,3.5-4.8,3.87-1.84,10.09,3.49,11.35,4.16.98,8.77.65,12.96,0"/></svg>