<?xml version="1.0" encoding="UTF-8"?><svg id="Layer_1" xmlns="http://www.w3.org/2000/svg" viewBox="0 0 163.66 163.66"><defs><style>.cls-1{fill:none;stroke:#fff;stroke-miterlimit:10;stroke-width:7px;}</style></defs><circle cx="81.83" cy="81.83" r="81.83"/><path class="cls-1" d="m68.26,18.73c-24.4,2.87-37.71,23.23-41.54,42.99-4.35,22.45,2.84,45.51,19.06,63.17,9.55,10.41,22.05,18.65,36.2,23.51-.47-16.35,5.54-34.24,17.34-51.93"/><path class="cls-1" d="m63.55,39.06c-22.74,34.77,5.83,71.47,5.83,71.47,8.42-24.54,16.2-56.63,39.53-71.47"/><path class="cls-1" d="m127.82,61.43c-25.31,13.92-10.56,49.11-10.56,49.11,0,0,15.98-32.04,37.46-35.74"/><path class="cls-1" d="m103.38,136.24c25.81,9.27,34.16-14.79,34.16-14.79"/></svg>