<?xml version="1.0" encoding="UTF-8"?><svg id="Layer_1" xmlns="http://www.w3.org/2000/svg" viewBox="0 0 163.7 163.7"><defs><style>.cls-1{fill:none;stroke:#fff;stroke-linejoin:bevel;stroke-width:7px;}</style></defs><circle cx="81.85" cy="81.85" r="81.83"/><path class="cls-1" d="m22.39,46.56c4.89-4.64,11.86-9.46,18.89-9.32,6.16.12,8.98,5.6,11.38,10.44,2.96,5.96,6.59,11.37,12.37,14.93,11.61,7.17,29.07,2.55,31.96-11.78.39-1.95.48-3.96.23-5.93-.14-1.15-.41-2.28-.77-3.37-.58-1.7-1.42-3.31-2.45-4.78"/><path class="cls-1" d="m32.96,62.24c12.03,20.28,42.29,30.62,63.89,17.91,9.3-5.47,14.53-15,15.86-25.52"/><path class="cls-1" d="m123.77,33.95c9.03,1.6,15.61,11.62,13.49,20.55-1.04,4.36-3.8,8.32-3.93,12.8-.1,3.7,1.69,7.29,4.33,9.88,2.64,2.59,6.07,4.26,9.6,5.35"/><path class="cls-1" d="m112.71,35.39S93.93,2.87,71.18,18.28"/><path class="cls-1" d="m22.37,118.07c10.84-3.44,22.33-4.43,33.63-3.47,11.38.96,21.84,4.6,32.85,7.21,15.8,3.76,42.48,4.05,49.26-14.88"/><path class="cls-1" d="m78.62,128.25c-.46,9.67-7.94,16.99-17.42,18.05"/><path class="cls-1" d="m90.74,133.05c1.32,10.73,7.97,16.11,15.54,16.88"/><path class="cls-1" d="m88.28,103.09c13.19,1.67,31.4-1.63,37.9-14.75"/><path class="cls-1" d="m20.07,82.25c13.33,13.13,31.36,17.67,49.84,17.15"/><path class="cls-1" d="m46.53,21.57c8.32,2.75,16.26,9.22,17.74,18.27"/></svg>