<?xml version="1.0" encoding="UTF-8"?><svg id="Layer_1" xmlns="http://www.w3.org/2000/svg" viewBox="0 0 163.66 163.66"><defs><style>.cls-1{fill:none;stroke:#fff;stroke-linejoin:bevel;stroke-width:7px;}</style></defs><circle cx="81.83" cy="81.83" r="81.83"/><path class="cls-1" d="m48.24,44.62c10.35,35.89,59.68,29.66,73.97,6.87"/><path class="cls-1" d="m136.57,152.24c-13.72-8.78-33.07-13.27-52.82-12.25-19.76,1.02-39.71,7.53-54.49,17.78"/><path class="cls-1" d="m106.16,40.7c-1.1,2.69-2.88,5.2-5.12,7.26-7.51,6.9-18.95,7.36-28.11,3.66-14.57-5.88-15.1-23.6-.32-30.47,9.19-4.26,23.96-3.41,31.14,4.43,4.13,4.51,4.44,10.13,2.41,15.12Z"/><path class="cls-1" d="m57.98,123.64c15.21-7.6,32.84-8.51,50.64-2.55"/><path class="cls-1" d="m129.48,37.3c4.07,3.61,8.68,7.18,11.33,12.05,6.42,11.78-6.16,22.67-5.36,34.55,1.02,15.2,22.19,9.36,20.38-3.2"/><path class="cls-1" d="m33.57,36.76c-7.43,11.75-13.68,26.59-6.56,39.95,3.95,7.42,13.33,21.56,2.68,27.8-7.18,4.21-16.37-3.51-17.99-10.37"/><path class="cls-1" d="m84.4,82.71c-.76,6.93-.41,13.98,1.02,20.81"/></svg>