<?xml version="1.0" encoding="UTF-8"?><svg id="Layer_1" xmlns="http://www.w3.org/2000/svg" viewBox="0 0 163.66 163.66"><defs><style>.cls-1{fill:#fff;}</style></defs><circle cx="81.83" cy="81.83" r="81.83"/><path class="cls-1" d="m65.21,95.68c-11.5,0-22.41-3.46-30.29-9.79-6.65-5.34-10.6-13.14-10.84-21.4-.24-8.18,3.21-16.12,9.47-21.8,12.63-11.45,33.1-15.98,50.93-11.28l-1.79,6.77c-15.63-4.13-33.5-.23-44.45,9.69-4.81,4.36-7.36,10.18-7.17,16.4.18,6.21,3.18,12.1,8.23,16.15,8.19,6.58,20.98,9.53,33.38,7.69,5.2-.77,9.64-2.31,13.21-4.58,2.8-1.78,4.98-4.55,5.98-7.61l6.65,2.18c-1.5,4.56-4.73,8.69-8.87,11.33-4.4,2.8-9.76,4.69-15.94,5.6-2.84.42-5.69.63-8.5.63Z"/><path class="cls-1" d="m117.01,99.7l-5.48-4.36c1.29-1.63,2.43-3.42,3.38-5.32,3.95-7.93,4.48-19.49-2.13-26.23-9.37-9.54-28.14-5.82-38.47-.13l-3.38-6.13c11.42-6.28,34.24-11.48,46.84,1.36,9.33,9.49,8.3,24.41,3.41,34.25-1.17,2.34-2.57,4.55-4.17,6.56Z"/><path class="cls-1" d="m51.91,131.46c-4.41,0-8.78-.85-12.81-2.55-9.25-3.9-16.51-11.83-18.96-20.7-1.96-7.12-.67-14.06,3.74-20.06l5.64,4.14c-3.1,4.22-4.01,9.08-2.64,14.06,1.86,6.75,7.72,13.07,14.93,16.11,6.38,2.69,14.19,2.62,20.88-.17,6.02-2.51,10.56-6.95,12.78-12.49l6.5,2.6c-2.92,7.29-8.81,13.1-16.58,16.34-4.33,1.81-8.93,2.71-13.49,2.71Z"/><path class="cls-1" d="m112.47,132.06c-6.22,0-11.75-2.6-15.35-7.5-5.36-7.28-4.91-17.32,1.14-25.57l5.64,4.14c-4.21,5.73-4.66,12.51-1.15,17.27,3.31,4.5,9.17,5.84,15.68,3.59,8.72-3.01,16.67-10.72,21.27-20.62,4.44-9.57,5.15-19.76,1.96-27.97l6.52-2.54c3.87,9.97,3.09,22.16-2.14,33.45-5.46,11.77-14.69,20.62-25.33,24.3-2.81.97-5.59,1.44-8.25,1.44Z"/><path class="cls-1" d="m94.78,151.67c-8.23-7.85-22.48-8.23-31.11-.81l-4.56-5.31c11.24-9.65,29.79-9.16,40.5,1.06l-4.83,5.06Z"/><path class="cls-1" d="m116.89,47.21c-3.75,0-7.42-.87-10.6-3.12-3.56-2.52-5.8-6.07-6.47-10.29-.85-5.29.89-11.46,4.63-16.51l5.62,4.17c-2.61,3.51-3.89,7.81-3.34,11.23.37,2.34,1.59,4.25,3.6,5.68,5.59,3.95,14.95.62,20.03-1.72l2.93,6.36c-4.75,2.19-10.68,4.19-16.39,4.2Z"/></svg>