<?xml version="1.0" encoding="UTF-8"?><svg id="Layer_1" xmlns="http://www.w3.org/2000/svg" viewBox="0 0 163.71 163.71"><defs><style>.cls-1{fill:none;stroke:#fff;stroke-linejoin:bevel;stroke-width:7px;}</style></defs><circle cx="81.85" cy="81.85" r="81.83"/><path class="cls-1" d="m82.67,92.49c6.52-2.78,14.38,1.95,15.42,8.86.92,6.15-3.78,11.68-9,14.26-6.76,3.34-16.54,2.01-21.62-3.78-5.3-6.03-7.61-14.32-7.35-22.25.4-11.96,5.86-23.23,12.76-32.77,6.07-8.39,13.39-15.8,20.65-23.15,1.27-1.29,2.51-2.61,3.76-3.91"/><path class="cls-1" d="m56.42,24.51c-3.99-.27-8.39,3.06-10.89,5.97-3.77,4.38-7.57,10.78-7.01,16.8.36,3.87,3.99,6.54,7.72,6.6,4.35.07,8.02-3.13,10.69-6.23,4.36-5.07,9.07-14.75,4-20.75-1.33-1.57-2.88-2.27-4.51-2.38Z"/><path class="cls-1" d="m128.16,107.26c-16.1-17.92-20.91-28.11-23.91-50.27"/><path class="cls-1" d="m43.09,132.07c.52-17.14-5.14-31.36-17.51-41.65"/><path class="cls-1" d="m145.2,73.1c-.51-2.88-1.38-5.73-1.99-8.02-.91-3.44-2.08-6.83-3.73-9.99-1.54-2.96-3.42-6.38-6.82-7.4-2.64-.79-5.25.57-6.49,2.95-2.02,3.89-1.29,8.63-.63,12.77,1.1,6.9,3.66,14.23,8.71,19.25,2.86,2.84,8.03,4.07,10.26-.15,1.39-2.63,1.29-6.05.69-9.42Z"/><path class="cls-1" d="m47.04,80.7c-7.3-10.35-18.24-15.43-29.64-17.11"/><path class="cls-1" d="m86.27,131.8c-6.27,1.28-12.86,2.99-18.05,6.92-4.64,3.52-5.27,10.09.53,12.79,4.56,2.13,10.66,1.52,15.53,1.16,5.39-.4,10.75-1.31,15.99-2.61,3.36-.84,6.84-1.77,9.78-3.67,2.86-1.85,5.47-5.34,4.61-8.93-.44-1.82-1.78-3.33-3.37-4.33-2.3-1.44-5.13-2.07-7.79-2.38-.33-.04-.65-.07-.98-.09-5.35-.4-11,.06-16.25,1.13Z"/><path class="cls-1" d="m107.72,43.06c9.68-2.23,16.12-6.99,21.62-15.15"/><path class="cls-1" d="m64.57,10.66c1.39,8.09,6.78,15.38,14.1,19.1"/></svg>