<?xml version="1.0" encoding="UTF-8"?><svg id="Layer_1" xmlns="http://www.w3.org/2000/svg" viewBox="0 0 163.66 163.66"><defs><style>.cls-1{fill:none;stroke:#fff;stroke-linejoin:bevel;stroke-width:7px;}</style></defs><circle cx="81.83" cy="81.83" r="81.83"/><path class="cls-1" d="m32.45,35.71c5.93-4.77,13.75-4.62,20.84-3.07,9.88,2.15,16.51,6.63,26.09.74,4.23-2.6,8.25-5.13,13.4-4.82,5.55.34,10.65,3.26,16.3,2.96s9.63-3.11,13.91-8.34"/><path class="cls-1" d="m27.47,58.2c5.03-4.64,11.65-8.56,18.75-7.23,6.3,1.18,11.57,5.76,18.01,6.34,7.37.66,12.5-4.82,18.61-7.91,10.36-5.26,19.91,1.08,30.32,2.1,9.01.88,13.09-3.42,18.81-9.45"/><path class="cls-1" d="m101.08,86.74c-13.44,5.81-11.62,15.62-6.33,25.62-15.2-2.61-32.06-13.13-25.28-40.51"/><path class="cls-1" d="m144,73.42c8.81,30.07.32,51.93-26.55,63.75"/><path class="cls-1" d="m22.84,91.29c-4.66,25.42,10.48,48.74,34.29,54.66"/><path class="cls-1" d="m133.02,90.01c2.94,12.26-2.23,24.01-13.24,29.96"/><path class="cls-1" d="m36.94,101.33c-1.96,12.28,4.58,25,16.2,26.81"/><path class="cls-1" d="m70.54,144.48c9.11-11.25,23.12-10.49,33.81-1.45"/><path class="cls-1" d="m21.07,75.84c4.88,4.25,11.43,6.6,17.89,6.17,3.63-.24,7.14-1.32,10.61-2.39"/><path class="cls-1" d="m111.97,75.39c10.34,1.74,17.96-1.33,22.16-10.52"/></svg>