<?xml version="1.0" encoding="UTF-8"?><svg id="Layer_1" xmlns="http://www.w3.org/2000/svg" viewBox="0 0 163.66 163.66"><defs><style>.cls-1{stroke-width:7px;}.cls-1,.cls-2{fill:none;stroke:#fff;stroke-linejoin:bevel;}.cls-2{stroke-width:7.8px;}</style></defs><circle cx="81.83" cy="81.83" r="81.83"/><path class="cls-2" d="m26.8,69.73c-.51-32.49,32.19-56.07,62.86-53.78,28.39,2.12,50.82,25.9,50.28,54.51-.05,2.56-.25,5.12-.57,7.66-.03.2-.06.39-.09.59"/><path class="cls-2" d="m58.4,48.45c-10.57,11.89-10.37,31.76.24,43.62,10.61,11.85,30.1,14.33,43.49,5.74,13.39-8.59,19.3-27.09,13.63-41.95"/><path class="cls-1" d="m25.53,117.51c34.41,24.71,70.77,28.42,109.08,5.3"/><path class="cls-1" d="m15.09,84.37c4.39,10.43,12.66,11.8,23.42,7.36"/><path class="cls-1" d="m127.08,92.84c8.48,7.66,15.86,8.42,21.62-.99"/><path class="cls-1" d="m67.99,77c-2.57-10.17,8.53-18.13,17.72-17.87,10.43.29,17.77,12.42,13.8,21.94"/><line class="cls-1" x1="84.12" y1="70.83" x2="82.94" y2="90.11"/><path class="cls-1" d="m63.31,113.67c8.44,11.42,22.06,11.39,30.66,2.21"/><path class="cls-1" d="m65.8,150.09c7.07,3.7,14.31,4.07,21.73.84"/><path class="cls-1" d="m68.75,40.26c14.23-10.35,29.47-7.98,37.83,4.83"/></svg>