<?xml version="1.0" encoding="UTF-8"?><svg id="Layer_1" xmlns="http://www.w3.org/2000/svg" xmlns:xlink="http://www.w3.org/1999/xlink" viewBox="0 0 163.7 163.7"><defs><style>.cls-1{stroke:#fff;stroke-linejoin:bevel;stroke-width:7px;}.cls-1,.cls-2{fill:none;}.cls-3{clip-path:url(#clippath);}</style><clipPath id="clippath"><circle class="cls-2" cx="81.85" cy="81.85" r="81.83"/></clipPath></defs><g class="cls-3"><circle cx="81.85" cy="81.85" r="81.83"/><path class="cls-1" d="m79.41,50.31c1.13.37,2.36.31,3.62-.38,3.33-1.83,4.81-7.18,5.3-11.21.65-5.39.57-12.24-2.76-16.44-3.48-4.39-8.44-2.85-10.8,2.16-2.7,5.71-2.37,14.71-.16,20.53.93,2.45,2.69,4.65,4.8,5.34Z"/><path class="cls-1" d="m70.37,173.39c6.73,6.99,15.53,8.5,23.18.84,6.06-6.07,9.6-15.72,11.71-25.56,2.75-12.84,3.4-26.58,1.89-39.99-.9-8.01-2.61-16.02-5.9-22.91-3.29-6.89-8.29-12.58-14.14-14.57-9.37-3.18-19.21,3.89-24.43,14.48-5.22,10.59-6.57,23.95-6.43,36.87.14,13.69,2.2,28.97,7.7,41.1,1.76,3.87,3.95,7.18,6.42,9.75Z"/><path class="cls-1" d="m107.3,54.41c8.42-6.26,20.88-8.01,31.12-4.38"/><path class="cls-1" d="m86.68,88.23c-3.52-3.36-8.98-1.91-11.38,3.03-2.69,5.54-1.84,17.23,5.76,18.5,10.01,1.67,10.4-12.63,7.51-18.83-.52-1.11-1.16-2-1.88-2.69Z"/><path class="cls-1" d="m38.86,51.63c-9.27,20.17-7.6,42.71,3.9,67.38"/><path class="cls-1" d="m125.23,116.55c6.68-29.02,6.07-51.47-2.39-66.84"/><path class="cls-1" d="m22.36,52.24c12.42-5.87,22.88-3.02,31.6,7.63"/><path class="cls-1" d="m23.68,152.22c37.19-20.29,74.45-23.68,117.48-3.27"/><path class="cls-1" d="m110.05,39.61c5.16-3.71,12.05-4.91,18.15-3.16"/><path class="cls-1" d="m34.05,36.45c6.77-.93,13.92,1.69,18.49,6.77"/></g></svg>