<?xml version="1.0" encoding="UTF-8"?><svg id="Layer_1" xmlns="http://www.w3.org/2000/svg" viewBox="0 0 163.7 163.7"><defs><style>.cls-1{stroke-miterlimit:10;}.cls-1,.cls-2{fill:none;stroke:#fff;stroke-width:7px;}.cls-2{stroke-linejoin:bevel;}</style></defs><circle cx="81.85" cy="81.85" r="81.83"/><path class="cls-1" d="m32.08,90.24c-6.99,7.39-1.84,18.86,7.02,21.82,8.43,2.82,16-4.47,19.71-11.46,7.2-13.55,5.85-28.74,5.71-43.49,0-.5,0-.99-.01-1.49-.04-11.78.13-35.33.13-35.33,0,0,.95,80.82,35.85,101.13"/><path class="cls-2" d="m88.51,60.23c1.01,10.77,4.1,21.57,9.51,30.97,5.98,10.4,21.12,27.31,34.53,18.51,3.36-2.21,5.75-5.69,7.25-9.42,8.31-20.67-2.21-44.08-14.84-60.51-6.45-8.39-19.91-15.8-29.33-7.57-6.68,5.84-7.74,15.84-7.39,24.18.05,1.26.14,2.55.26,3.85Z"/><path class="cls-2" d="m68.72,128.06c-3.94,21.62,34.06,25.15,34.51,2.02"/><path class="cls-2" d="m44.84,42.25c.43,14.75-2.2,26.85-7.33,34.85"/></svg>