<?xml version="1.0" encoding="UTF-8"?><svg id="Layer_1" xmlns="http://www.w3.org/2000/svg" viewBox="0 0 163.66 163.66"><defs><style>.cls-1{fill:none;stroke:#fff;stroke-linejoin:bevel;stroke-width:7px;}</style></defs><circle cx="81.83" cy="81.83" r="81.83"/><path class="cls-1" d="m43.44,49.89c-2.93-4.73-2.37-10.98,1.24-15.2,4.31-5.03,11.34-4.93,16.56-1.29,12.07,8.4,10.65,24.82,16.38,36.85l.15.31c5.24,10.75,18.85,19.35,30.87,14.88,12.23-4.55,16.21-20.8,9.82-31.55-3.82-6.43-12.12-10.52-19.46-8.04-5.27,1.79-8.35,7.53-6.48,12.83s7.77,7.86,13.14,8.29"/><path class="cls-1" d="m52.68,134.15c-6.39-.53-13.11-1.18-18.36-4.87-8.55-6-6.64-18.34,3.46-21.2,13.49-3.82,25.94,3.53,37.47,9.63,11.92,6.31,26.39,6.93,38.62,1.09,13.94-6.67,22.18-20.7,25.55-35.36"/><path class="cls-1" d="m32.22,67.87c6.63-3.25,17.08-3.11,22.5,2.45,5.35,5.48,4.64,14.33-1.99,18.29-6.07,3.62-14.77,3.88-21.13.84-6.74-3.22-8.86-11.18-4.44-17.29,1.31-1.81,3.06-3.3,5.07-4.28Z"/><path class="cls-1" d="m92.15,19.99c24.03,4.34,44.54,24.07,49.82,47.91"/><path class="cls-1" d="m71.07,141.91c13.45,7.06,31.31,4.44,42.16-6.17"/><path class="cls-1" d="m74.38,92.59c5.38,10.22,23.02,16.99,37.79,9.4"/></svg>