<?xml version="1.0" encoding="UTF-8"?><svg id="Layer_1" xmlns="http://www.w3.org/2000/svg" viewBox="0 0 163.66 163.66"><defs><style>.cls-1{fill:none;stroke:#fff;stroke-linejoin:bevel;stroke-width:7px;}</style></defs><circle cx="81.83" cy="81.83" r="81.83"/><path class="cls-1" d="m32.96,59.02c31.33,7.61,66.89,9.57,97.28,5.1"/><path class="cls-1" d="m27.82,44.54c27.22-.16,47.36-7.97,60.2-22.68,7.97,14.89,32.71,27.4,50.41,27.4"/><path class="cls-1" d="m67.05,51.44c7.23-.24,14.61-3.26,17.8-8.29,3.15,5.88,8.92,9.35,16.96,10.75"/><path class="cls-1" d="m134.44,103.35c-16.38-3.36-26.92-12.44-31.46-25.85-8.17,11.56-21.02,22.59-36.13,24.97"/><path class="cls-1" d="m111.55,134.96c-16.38-3.36-26.92-12.44-31.46-25.85-8.17,11.56-21.02,22.59-36.13,24.97"/><path class="cls-1" d="m93.47,103.33c-16.23-4.01-26.41-13.49-30.42-27.07-8.62,11.23-21.9,21.75-37.09,23.53"/></svg>