<?xml version="1.0" encoding="UTF-8"?><svg id="Layer_1" xmlns="http://www.w3.org/2000/svg" viewBox="0 0 163.69 163.69"><defs><style>.cls-1{fill:none;stroke:#fff;stroke-linejoin:bevel;stroke-width:7px;}</style></defs><circle cx="81.84" cy="81.84" r="81.83"/><path class="cls-1" d="m85.97,84.77c10.15-16.07,20.93-35.05,17.98-61.57,3.22,31.39,20.25,53.41,34.87,76.83-36.47-7.95-79.25-1.72-111.1,14.82"/><path class="cls-1" d="m88.25,117.22c-6.37.5-12.57,2.04-16.84,3.64-3.58,1.34-7.13,3.14-9.57,6.09-4.24,5.12-3.01,12.07,2.01,16.11,9.79,7.87,30.63,5.16,41.22.36,5.31-2.41,10.4-6.27,9.43-12.72-1.8-11.99-16.55-14.23-26.25-13.48Z"/><path class="cls-1" d="m29.01,94.34c13.21-11.97,17.79-34.44,19.88-59.95,3.84,19.32,11.47,32.94,20.73,42.75"/><path class="cls-1" d="m125.84,30.82c.7,19.37,9.39,38.33,23.6,51.51"/><path class="cls-1" d="m29.27,41.18c.09,12.3-4.33,24.59-12.22,34.02"/><path class="cls-1" d="m83.55,7.75c-2.72,4.7-4.97,10.2-3.58,15.45.71,2.67,2.31,5,3.75,7.36,2.25,3.67,4.25,7.68,4.42,11.98s-1.88,8.94-5.82,10.66"/><path class="cls-1" d="m66.63,14.1c-9.04,7.93,7.1,16.51,1.49,29.57"/></svg>