<?xml version="1.0" encoding="UTF-8"?><svg id="Layer_1" xmlns="http://www.w3.org/2000/svg" viewBox="0 0 175 184.16"><defs><style>.cls-1{fill:none;stroke:#fff;stroke-linejoin:bevel;stroke-width:7px;}</style></defs><circle cx="89.08" cy="102.31" r="81.83"/><path class="cls-1" d="m55.63,4.33c2.31,12.85,6.48,25.44,13.01,36.38,4.73,7.92,11.03,15.87,19.12,19.68,8.17,3.85,18.15,1.62,24.27-5.73,11.54-13.87,6.81-37.63,2.55-53.76"/><path class="cls-1" d="m2.69,102.01c5.88,7.04,12.9,13.31,20.39,18.82,22.52,16.57,50.26,27.31,78.79,28.05,25.49.66,51.46-7.06,70.98-22.43"/><path class="cls-1" d="m3.02,138.23c5.88,4.48,12.9,8.48,20.39,11.99,22.52,10.56,50.26,17.39,78.79,17.86,25.49.42,51.46-4.5,70.98-14.29"/><path class="cls-1" d="m140.8,32c7.6,21.68,7.05,48.34-5.67,67.51-14.63,22.06-43.61,22.45-63.04,7.82-6.77-5.1-12.61-11.53-17.67-18.57-11.57-16.11-17.57-41.41-19.62-61.25"/><path class="cls-1" d="m159.19,92.87c.72,12.85-8.48,25.8-19.95,29.8,11.48-4,20.67-16.96,19.95-29.8Z"/><path class="cls-1" d="m28.79,83.66c3.75,16.11,11.03,23.64,24.72,30.84"/><path class="cls-1" d="m78.16,81.49c11.2,13.62,33.71,12.61,41.37-2.37"/></svg>