<?xml version="1.0" encoding="UTF-8"?><svg id="Layer_1" xmlns="http://www.w3.org/2000/svg" viewBox="0 0 163.66 163.66"><defs><style>.cls-1{fill:none;stroke:#fff;stroke-linejoin:bevel;stroke-width:7px;}</style></defs><circle cx="81.83" cy="81.83" r="81.83"/><path class="cls-1" d="m25.82,73.94c16.89-3.13,28.76-6.23,45.22-11.14-6.72,5.25-10.94,13.06-14.01,21.01-4.89,12.64-7.36,26.22-7.23,39.77"/><path class="cls-1" d="m140.57,86.19c-9.77-4.07-32.28-12.25-32.28-12.25,8.76,14.68,11.57,37.14,11.59,63.25"/><path class="cls-1" d="m72.3,125.43c-1.15,3.84-1.08,8.01-.02,11.88.72,2.62,1.91,5.15,3.78,7.12,1.87,1.96,4.49,3.3,7.21,3.28,4.1-.03,7.69-3.16,9.33-6.92,1.64-3.75,1.64-8.01,1.23-12.09-.51-4.99-2.03-11.77-7.53-13.49-6.16-1.92-11.93,4.17-13.76,9.48-.08.24-.16.48-.23.73Z"/><path class="cls-1" d="m20.13,54.51s59.96-10.83,70.3-12.53"/><line class="cls-1" x1="115.69" y1="55.23" x2="157.42" y2="73.94"/><path class="cls-1" d="m40.31,88.02c-3.79,5.08-9.19,9.7-15.83,13.97"/><path class="cls-1" d="m127.41,96.49c2.48,6.34,7.09,11.82,12.9,15.36"/><path class="cls-1" d="m99.96,58.28c-10.79,9.93-16.48,22.04-16.39,38.21"/><path class="cls-1" d="m122.22,40.77c6.95,2.04,13.92,2.73,20.92,2.05"/><path class="cls-1" d="m55.3,30.24c10.66.56,21.14-.82,31.32-4.1"/></svg>