<?xml version="1.0" encoding="UTF-8"?><svg id="Layer_1" xmlns="http://www.w3.org/2000/svg" viewBox="0 0 163.67 163.67"><defs><style>.cls-1{fill:none;stroke:#fff;stroke-linejoin:bevel;stroke-width:7px;}</style></defs><circle cx="81.83" cy="81.83" r="81.83"/><path class="cls-1" d="m84.68,141.82c-9.53-5.01-15.27-16.12-16.13-26.58-.7-8.56,2.96-19.31,11.28-23.1,9.59-4.36,21.48,3.17,19.53,14.08-1.59,8.9-8.44,20.79,1.42,27.35"/><path class="cls-1" d="m52.93,78.38c-10.75,15.7-11.82,37.49-2.66,54.16"/><path class="cls-1" d="m105.09,78.06c6.6,4.77,10.83,12.24,13.9,19.62,3.19,7.65,5.75,16.79,4.09,25.11"/><path class="cls-1" d="m100.29,35.02c15.68,9.82,27.29,27.14,28.16,45.88"/><path class="cls-1" d="m52.93,34.79c-21.14,11.96-39.65,39.57-28.79,64.17"/><path class="cls-1" d="m74.3,19.88c.39,27.95,16.31,46.16,16.31,46.16,0,0-19.17,1.52-29.46-10.06"/><path class="cls-1" d="m141.03,51.57c11.09,15.75,9.75,35.99,5.93,53.9"/></svg>