<?xml version="1.0" encoding="UTF-8"?><svg id="Layer_1" xmlns="http://www.w3.org/2000/svg" viewBox="0 0 163.69 163.69"><defs><style>.cls-1{fill:none;stroke:#fff;stroke-linejoin:bevel;stroke-width:7px;}</style></defs><circle cx="81.84" cy="81.84" r="81.83"/><path class="cls-1" d="m72.55,34.01c-14.64-1.25-23.38,13.12-23.36,26.15.03,17.49,15.99,33.11,33.6,32.5,6.79-.24,12.66-3.79,16.65-9.21.09-.13.19-.26.28-.39,8.58-12.06,4-27.75-5.52-37.77-5.46-5.75-13.48-10.58-21.65-11.28Z"/><path class="cls-1" d="m89.96,88.22c12.96-8.58-4.11-30.73-16.71-24.42-14.52,7.27,1.78,32.69,15.65,25.05.37-.2.72-.41,1.05-.64Z"/><line class="cls-1" x1="111.35" y1="53.99" x2="135.9" y2="47.16"/><line class="cls-1" x1="100.03" y1="37.23" x2="115.48" y2="19.29"/><line class="cls-1" x1="111.17" y1="42.41" x2="122.99" y2="33.41"/><line class="cls-1" x1="117.85" y1="64.6" x2="133.95" y2="63.34"/><line class="cls-1" x1="39.74" y1="70.07" x2="14.32" y2="71.91"/><line class="cls-1" x1="47.52" y1="88.74" x2="28.82" y2="103.27"/><line class="cls-1" x1="37.62" y1="81.46" x2="24.26" y2="87.94"/><line class="cls-1" x1="35.47" y1="58.39" x2="19.44" y2="56.44"/><path class="cls-1" d="m66.81,112.41c18.97,2.08,35.94-1.93,48.53-15.37"/><path class="cls-1" d="m45.77,132.65c39.98,7.86,74.01-1.97,98.75-29.69"/></svg>