<?xml version="1.0" encoding="UTF-8"?><svg id="Layer_1" xmlns="http://www.w3.org/2000/svg" viewBox="0 0 163.66 163.66"><defs><style>.cls-1{fill:none;stroke:#fff;stroke-linejoin:bevel;stroke-width:7px;}</style></defs><circle cx="81.83" cy="81.83" r="81.83"/><path class="cls-1" d="m27.44,54.83c-2.15-3.88-1.49-9.12,1.56-12.34,4.11-4.34,10.4-3.93,14.87-.56,1.85,1.4,3.67,2.99,5.91,3.6,9.8,2.71,11.94-13.23,14.42-19.16,6.94-16.62,30.43-19.41,38.61-2.03"/><path class="cls-1" d="m91.82,42.78c3.65-4.04,10.26-4.2,14.74-1.49,4.48,2.71,5.04,7.92,4.66,12.71-.34,4.26-1.21,9.07,1.4,12.84,3.67,5.29,11.38,4.69,15.37,9.69,3.39,4.26,3.15,10.46,1.47,15.35-2.43,7.06-7.57,13.31-13.29,18.01"/><path class="cls-1" d="m117.25,33.16c6.97-1.97,13.85,1.16,17.49,7.31,2.55,4.31,1.49,9.12,1.31,13.82-.19,4.98,1.32,8.39,4.96,11.78,5.6,5.22,9.11,11.15,8.36,19.07-.7,7.42-4.8,14.34-10.33,19.21"/><path class="cls-1" d="m41.71,66.05c1.27,6.29,6.32,10.38,12.68,10.65,11.29.49,19.32-10.21,30.72-8.63,9.3,1.29,15.46,9.57,15.8,18.66"/><path class="cls-1" d="m80.9,97.15c-3.34-5.49-9.48-7.61-15.55-5.7-6.78,2.13-10.01,8.25-14.89,12.87-11.19,10.58-28.06,2.5-33.26-10.36"/><path class="cls-1" d="m47.58,143.28c6.19-4.82,13.9-2.29,19.06,2.63,5.97,5.7,9.78,6.55,17.76,4.59"/><path class="cls-1" d="m75.66,115.43c3.79-7.78,15.68-7.35,21.06-1.69,5.28,5.55,7.49,16.25,16.6,16.68,4.87.23,10-2.54,11.71-7.19"/><path class="cls-1" d="m83.06,137.55c.54-4.35,5.6-6.33,9.23-4.12,5.43,3.31-.04,10.93,4.44,14.85,3.99,3.5,9.56-.09,9.08-5.01"/><path class="cls-1" d="m51.66,130.88c.18-2.57-.5-5.4-3.16-6.38-6.06-2.24-8.11,6.41-11.77,9.24-4.23,3.27-8.84-.83-8.51-5.47"/></svg>