<?xml version="1.0" encoding="UTF-8"?><svg id="Layer_1" xmlns="http://www.w3.org/2000/svg" viewBox="0 0 163.66 163.66"><defs><style>.cls-1{fill:none;stroke:#fff;stroke-linejoin:bevel;stroke-width:7px;}</style></defs><circle cx="81.83" cy="81.83" r="81.83"/><path class="cls-1" d="m103.55,49.91c-3.66,8.95-6.95,28.53-3.44,43.2"/><path class="cls-1" d="m85.22,105.25c.86.08,1.73.08,2.59,0,3.72-.31,7.7-1.86,10.06-4.85,7.49-9.48-4.59-19.9-13.49-21.66-3.21-.63-6.65-.39-9.5,1.32-4.46,2.68-6.35,8.38-4.79,13.26,2.06,6.46,8.41,11.33,15.13,11.92Z"/><path class="cls-1" d="m44.02,137.34c3.28-7.79,11.86-15.06,20.7-14.46,16.41-.03,15.51,22.85,15.51,22.85,0,0,4.07-4.56,5.63-5.67,9.24-6.63,18.13-8.24,29.13-5.77"/><path class="cls-1" d="m126.48,56.4c-3.78,6.6-5.18,16.57-5.17,21.46,0,6.64.68,15.08,6.12,19.69,6.77,5.74,14.16-1.58,17.22-7.56,4.36-8.55,5.31-20.02,2.35-29.12-1.23-3.79-3.52-8.45-7.56-10.08-5.5-2.23-10.27.91-12.96,5.61Z"/><path class="cls-1" d="m26.2,66.54c.43,6.96,5.71,12.95,12.76,13.66,8.01.8,16.18-5.19,21.07-10.97,5.11-6.04,9.81-16.46,7.06-24.4-2.6-7.52-10.72-10.9-18.21-9.46-5.64,1.08-10.68,4.48-14.39,8.87-5.1,6.03-8.78,14.3-8.29,22.31Z"/><path class="cls-1" d="m111.58,27.73c-8.03,13.04-27.09,20.15-27.09,20.15l34.86,3.67"/><path class="cls-1" d="m20.95,87.84c6.47,6.36,19.39,9.01,28.36,5.2"/><path class="cls-1" d="m117.57,110.87c7.29,3.42,18.36,5.21,28.21,1.97"/></svg>