<?xml version="1.0" encoding="UTF-8"?><svg id="Layer_1" xmlns="http://www.w3.org/2000/svg" viewBox="0 0 163.71 163.71"><defs><style>.cls-1{fill:none;stroke:#fff;stroke-linejoin:bevel;stroke-width:7px;}</style></defs><circle cx="81.85" cy="81.85" r="81.83"/><path class="cls-1" d="m58.62,21.01c-4.37,11.9-2.64,27.4,2.19,41.3"/><path class="cls-1" d="m105.37,20.53c-14.21,9.22-22.4,23.93-24.53,40.51"/><path class="cls-1" d="m101.39,69.29c7.68-12.08,18.07-17.05,31.2-17.84"/><path class="cls-1" d="m116.41,84.5c8.07-4.31,18.74-5.2,28.77.24"/><path class="cls-1" d="m47.54,77.86c-14.78-9.77-19.67-22.1-19.99-34.98"/><path class="cls-1" d="m59.73,106.45c9.07,13.04,36.19,23.31,45.13,4.79,8.9-18.43-13.36-37.86-30.93-36.25-5.93.54-11.51,3.72-14.82,8.7-4.6,6.93-4.06,16.03.62,22.76Z"/><path class="cls-1" d="m48.51,137.73c1.66.44,3.3.45,4.78-.34,7.16-3.8.33-13.29-2.9-17.36-4.8-6.05-10.51-12.78-18.26-14.9-7.2-1.97-10.6,5.02-7.26,10.94,3.83,6.8,9.2,12.74,15.58,17.24,2.08,1.46,5.08,3.64,8.06,4.43Z"/><path class="cls-1" d="m69.92,142.29c22.48,10.4,54.05,1.46,62.93-23.19"/><line class="cls-1" x1="13.42" y1="91.89" x2="38.96" y2="90.35"/></svg>