<?xml version="1.0" encoding="UTF-8"?><svg id="Layer_1" xmlns="http://www.w3.org/2000/svg" viewBox="0 0 163.66 163.66"><defs><style>.cls-1{stroke-miterlimit:10;}.cls-1,.cls-2{fill:none;stroke:#fff;stroke-width:7px;}.cls-2{stroke-linejoin:bevel;}</style></defs><circle cx="81.83" cy="81.83" r="81.83"/><path class="cls-2" d="m30.41,69.29c-1.49-1.75-2.36-3.94-2.14-6.61.57-6.88,7.8-12.66,13.45-15.61,8.11-4.24,17.99-5.54,26.99-4.07,9.22,1.51,14.97,12.61,9.52,20.64-7.09,10.44-23.54,12.1-35.04,11.22-4.31-.33-9.79-2.07-12.77-5.56Z"/><path class="cls-2" d="m109.54,31.88c2.56-1.26,5.6-1.53,9.22-.3,15.15,5.13,14.29,31.56,7.18,42.69-4.38,6.86-14.04,10.74-21.04,5.2-7.22-5.72-8.47-15.64-7.38-24.23,1.04-8.19,3.97-19.39,12.01-23.37Z"/><path class="cls-2" d="m112.44,105.99c-7.82,4.54-16.91,5.5-25.79,3.82-8.07-1.53-17.59-8.31-25.84-4.89-5.1,2.12-6.94,7.09-4.63,11.87,4.28,8.81,15.76,10.19,24.75,10.29,11.24.12,24.51.03,34.2-6.01"/><path class="cls-2" d="m118.63,134.85c-12.79,5.87-27.4,8.88-41.54,6.74-9.78-1.48-21.43-6.98-17.37-19.04"/><path class="cls-2" d="m134.26,126.11c-2.47-3.91-3.37-9-2.42-13.66,1.34-6.56,5.92-11.58,10.12-16.43s8.43-10.45,8.75-17.17c.34-7.36-4.08-13.81-8.28-19.52"/><path class="cls-2" d="m45.59,142.28c1-5.22.08-11.33-2.46-16.41-3.57-7.15-9.71-11.59-15.42-15.94-5.71-4.35-11.72-9.56-14.37-17.18-2.9-8.36-.92-17.06,1.1-24.84"/><path class="cls-2" d="m90.82,41.06c-3.81-2.21-5.1-7.14-3.5-11.11s5.99-6.34,5.94-10.87c-.04-3.9-3.26-7.07-5.75-9.72"/><path class="cls-2" d="m30.71,35.68c4.09-8.37,14.57-7.33,22.32-6.53,8.23.84,20.34,2.47,18.76-9.82"/><path class="cls-1" d="m85.32,76.49c-.71,4.82-9.26,12.77-9.26,12.77l17.98,2.86"/></svg>