<?xml version="1.0" encoding="UTF-8"?><svg id="Layer_1" xmlns="http://www.w3.org/2000/svg" viewBox="0 0 163.66 163.66"><defs><style>.cls-1{fill:none;stroke:#fff;stroke-linejoin:bevel;stroke-width:7px;}</style></defs><circle cx="81.83" cy="81.83" r="81.83"/><path class="cls-1" d="m30.16,145.28c13.45-8.54,21.39-24.54,16.75-42.02-5.72-21.53-25.86-30.2-46.18-32.19"/><path class="cls-1" d="m21.54,26.52c6.92,5.01,15.16,8.66,22.58,11.86,33.25,14.32,67.57,17.29,102.42,6.43,2.28-.71,4.65-1.52,6.96-2.48m-31.56-13.95c-22.31,5.27-46.78,1.3-66.05-11.22,19.27,12.52,43.74,16.49,66.05,11.22Z"/><path class="cls-1" d="m163.3,74.26c-18.3-.33-40.34,8.5-41.33,28.55-.74,14.9,11.01,24.49,23.41,30.56"/><path class="cls-1" d="m.73,71.07c20.32,1.99,40.46,10.66,46.18,32.19,4.65,17.48-3.3,33.48-16.75,42.02m123.34-102.95c-2.31.96-4.68,1.77-6.96,2.48-34.84,10.87-69.17,7.9-102.42-6.43-7.43-3.2-15.66-6.86-22.58-11.86m123.85,106.85c-12.41-6.07-24.15-15.66-23.41-30.56.99-20.05,23.03-28.88,41.33-28.55m-70.35,20.8c.12,5.75-2.91,11.37-9.02,12.14-6.05.76-12.9-2.25-17.58-5.91,4.68,3.66,11.52,6.68,17.58,5.91,6.11-.77,9.14-6.39,9.02-12.14-.19-9.68-6.57-20.62-14.47-26.05,7.9,5.43,14.28,16.37,14.47,26.05Zm-.69,25.62l-17.5,5.96,17.5-5.96Zm-39.94-42.11c-1.05-4.1,1.4-7.5,3.56-10.72,0,0-15.25-7.66-21.3-10.1,6.06,2.44,21.3,10.1,21.3,10.1-2.16,3.22-4.62,6.62-3.56,10.72,1.72,6.68,8.78,6.25,14.27,5.83-5.49.42-12.55.85-14.27-5.83Zm14.03,65.1l42.46-15.08-42.46,15.08Zm49.05-64.85c-2.8,2.73-7.58,2.97-11.25,3.01,3.68-.04,8.45-.29,11.25-3.01,4.14-4.03-.28-9.97-3.18-13.25,0,0,15.52-4.93,23.12-7.85-7.6,2.92-23.12,7.85-23.12,7.85,2.89,3.28,7.31,9.22,3.18,13.25Z"/></svg>