<?xml version="1.0" encoding="UTF-8"?><svg id="Layer_1" xmlns="http://www.w3.org/2000/svg" xmlns:xlink="http://www.w3.org/1999/xlink" viewBox="0 0 164.09 166.08"><defs><style>.cls-1{stroke:#fff;stroke-linejoin:bevel;stroke-width:7px;}.cls-1,.cls-2{fill:none;}.cls-3{clip-path:url(#clippath);}</style><clipPath id="clippath"><circle class="cls-2" cx="81.71" cy="82.32" r="81.83"/></clipPath></defs><g class="cls-3"><circle cx="81.71" cy="82.32" r="81.83"/><path class="cls-1" d="m11.72,6.45c4.41,23.58,17.32,47.22,37.65,60.67,21.67,14.33,51.17,11.39,70.44-5.7,23.68-21,25.37-57.67,19.8-86.68"/><path class="cls-1" d="m67.58,20.48c-.19.09-.37.19-.55.29-4.35,2.4-7.31,7.14-7.59,12.1-.47,8.55,7.43,16.39,15.2,18.6,9.34,2.65,23.85.57,25.86-11.14,2.11-12.25-12.07-20.75-22.58-21.58-3.53-.28-7.19.15-10.35,1.73Z"/><path class="cls-1" d="m-6.59,67.99c52.88,38.38,129.67,33.97,177.81-10.16"/><path class="cls-1" d="m88.26,108.7c5.71,11.6,4.75,26.21-2.44,36.96"/><path class="cls-1" d="m116.84,103.83c12.91,2.37,25.11-3.74,29.06-12.6"/><path class="cls-1" d="m24.59,102.09c8.29,8.18,19.12,10.73,31.22,6.95"/><path class="cls-1" d="m79.37,120.32c1.83,4.52,1.6,9.83-.62,14.17"/><path class="cls-1" d="m113.5,132.26c12.78,10.56,14.96,21.82,6.25,41.07"/><path class="cls-1" d="m57.79,134.8c-12.78,10.56-14.96,21.82-6.25,41.07"/><path class="cls-1" d="m64.03,146.94c-4.27,4.86-5.11,11.66-2.22,17.93"/><path class="cls-1" d="m107.28,144.7c3.37,5.85,4.67,12.86,3.61,19.53"/></g></svg>