<?xml version="1.0" encoding="UTF-8"?><svg id="Layer_1" xmlns="http://www.w3.org/2000/svg" viewBox="0 0 163.66 163.66"><defs><style>.cls-1{fill:none;stroke:#fff;stroke-linejoin:bevel;stroke-width:7px;}</style></defs><circle cx="81.83" cy="81.83" r="81.83"/><path class="cls-1" d="m118.6,27.69c-11.01,8.38-25.13,11.82-38.81,11.3-12.49-.47-27.46-3.92-34.73-15.11"/><path class="cls-1" d="m30.96,73.13c1.82-1.48,3.64-2.96,5.53-4.35,26.69-19.64,64.49-18.29,89.92,3.05,3,2.51,5.79,5.27,8.33,8.24"/><path class="cls-1" d="m117.18,140.29c-19.13-19.42-47.14-20.25-66.87-1.99"/><path class="cls-1" d="m86.57,81.19c-6.05-2.22-13.53-1.65-18.44,1.77-3.22,2.25-5.11,6.25-4.78,10.17,1.18,13.95,26.89,16.95,32.28,4.55,3.07-7.06-2.58-14.11-9.06-16.49Z"/><line class="cls-1" x1="115.04" y1="92.04" x2="134.49" y2="130.72"/><line class="cls-1" x1="45.05" y1="90.32" x2="25.71" y2="128.47"/><line class="cls-1" x1="126.03" y1="47.8" x2="148.8" y2="71.5"/><line class="cls-1" x1="38.48" y1="44.66" x2="12.95" y2="64.96"/></svg>