<?xml version="1.0" encoding="UTF-8"?><svg id="Layer_1" xmlns="http://www.w3.org/2000/svg" viewBox="0 0 163.71 163.71"><defs><style>.cls-1{stroke-miterlimit:10;}.cls-1,.cls-2{fill:none;stroke:#fff;stroke-width:7px;}.cls-2{stroke-linejoin:bevel;}</style></defs><circle cx="81.85" cy="81.85" r="81.83"/><path class="cls-2" d="m121.01,21.51c9.41,13.88,1.4,29.57-8.37,40.67-5.87,6.66-13.62,12.33-16.95,20.84-4,10.24,1.3,22.5,11.79,26.1,7.91,2.71,17-.35,22-6.98,5.1-6.77,5.65-17.87-3.36-21.53-8.4-3.42-17.65,5.07-14.17,13.59"/><path class="cls-2" d="m83.23,20.84c2.26,9.46,3.43,19.57.77,29.08-2.8,10.03-11.3,17.24-16.28,26.09s-4.45,18.08-.59,26.82"/><path class="cls-2" d="m49.81,60.43c-2.08,7.55-3.38,16.55-8.94,22.5-5.1,5.45-14.11,6.27-19.48.72-10.11-10.46,3.21-28.16,9.63-36.95"/><polyline class="cls-1" points="133 132.72 83.32 141.84 94.5 117.91"/><path class="cls-1" d="m29.62,111.69c-2.57,1.37-4.06,3.76-3.28,7.66,2.61,13,25.48,21.59,36.96,20.56,5.4-.48,7.57-5.37,5.97-10.2-2.89-8.73-12.06-14.97-20.35-17.9-4.19-1.48-14.03-2.94-19.3-.12Z"/><path class="cls-1" d="m62.33,22.11c3.9,9.4,3.49,20.48-1.09,29.57"/><path class="cls-1" d="m131.25,64.3c6.05-7.35,8.95-17.21,7.86-26.67"/><path class="cls-1" d="m103.82,26.6c1.25,12.16-.79,21.55-6.42,27.88"/><path class="cls-1" d="m41.72,24.53c3.6,5.82,4.01,13.49,1.05,19.66"/></svg>