<?xml version="1.0" encoding="UTF-8"?><svg id="Layer_1" xmlns="http://www.w3.org/2000/svg" viewBox="0 0 163.67 163.67"><defs><style>.cls-1{fill:none;stroke:#fff;stroke-linejoin:bevel;stroke-width:7px;}</style></defs><circle cx="81.83" cy="81.83" r="81.83"/><path class="cls-1" d="m19.77,71.28c21.22-15.18,45.34-22.76,73.18-20.59"/><path class="cls-1" d="m37.28,38c-3.77,14.83-.49,28.71,8.52,40.3"/><path class="cls-1" d="m57.12,38.06c-5.43,11.16-4.02,22.58,3.62,33.75"/><path class="cls-1" d="m76.97,30.75c-6.73,14.19-7.81,26.88.47,40.11"/><path class="cls-1" d="m92.35,81.73c-1.68,16.69,5.84,31.84,22.04,45.41"/><path class="cls-1" d="m114.14,97.02c-14.41-.97-26.88,2.45-36.1,9.98"/><path class="cls-1" d="m122.61,110.03c-14.76-1.6-26.67,2.71-36.73,10.84"/><path class="cls-1" d="m135.42,95.59c2.67-21.66-6.07-39.58-25.61-53.85"/><path class="cls-1" d="m115.99,75.72c11.05.45,21.12-2.85,29.16-9.64"/><path class="cls-1" d="m110.42,61.81c11.4.85,20.49-3.15,28.26-10.63"/><path class="cls-1" d="m14.44,102.6c22.47,1.39,40.27,11.35,53.2,30.06"/><path class="cls-1" d="m46.78,91.86c-10.04,8.43-14.35,21.14-11.03,34.74"/><path class="cls-1" d="m59,100.56c-9.98,9.57-12.32,20.92-9.4,32.37"/><path class="cls-1" d="m132.84,132.59c-19.75,18.07-58.34,24.63-82.14,12.54"/><path class="cls-1" d="m42.17,27.48c22.46-15.07,46.65-16.16,72.2-6.29"/></svg>