<?xml version="1.0" encoding="UTF-8"?><svg id="Layer_1" xmlns="http://www.w3.org/2000/svg" viewBox="0 0 163.66 163.66"><defs><style>.cls-1{stroke-miterlimit:10;}.cls-1,.cls-2{fill:none;stroke:#fff;stroke-width:7px;}.cls-2{stroke-linejoin:round;}</style></defs><circle cx="81.83" cy="81.83" r="81.83"/><polygon class="cls-1" points="74.49 139.31 66.37 122.17 85.05 115.92 93.56 134.26 74.49 139.31"/><path class="cls-1" d="m111.07,18.06c-15.55,2.89-38.51,21.77-20.66,36.95,6.77,5.76,17.89,5.82,26.29,5.23,0,0,1.31,11.37,1.55,12.45,3.23,14.77,18,23.54,32.45,23.54"/><path class="cls-1" d="m35.53,26.79c7.22-.72,15.64-.25,21.89,3.84,6.6,4.32,8.6,13.5,4.5,20.21-4.52,7.38-14.12,11.11-22.2,12.82,0,0,3.46,7.77,4.31,12.05,2.44,12.26-10.6,25.69-25.83,23.26"/><polyline class="cls-1" points="96.71 78.46 97.68 96.22 68.26 78.85"/><path class="cls-2" d="m110.99,142.69c-.95-9.23-4.23-20.44,4.16-27.35,5.12-4.22,12.29-4.66,18.92-4.84"/><path class="cls-2" d="m33.74,111.29s20.85,10.79,11,32.95"/></svg>