<?xml version="1.0" encoding="UTF-8"?><svg id="Layer_1" xmlns="http://www.w3.org/2000/svg" viewBox="0 0 163.7 163.7"><defs><style>.cls-1{fill:none;stroke:#fff;stroke-linejoin:bevel;stroke-width:7px;}</style></defs><circle cx="81.85" cy="81.85" r="81.83"/><path class="cls-1" d="m61.62,74.11c.73,3.78,2.24,7.4,4.59,10.6,7.04,9.54,19.34,14.77,31.03,14.65,3.57-.04,7.14-.58,10.54-1.69,16.9-5.54,24.3-25.74,17.78-41.82-3.67-9.04-11.62-16.07-20.83-19.14-10.36-3.45-21.33-.86-29.97,5.61-9.82,7.36-15.51,19.52-13.14,31.79Z"/><path class="cls-1" d="m128.21,70.3c-2.8-6.03-9.35-7.49-15.28-5.48-7.29,2.47-12.02,8.91-12.1,16.57-.07,6.7,2.57,14.8,10.29,15.62"/><path class="cls-1" d="m15.58,72.42c10.19-5.75,21.87-6.61,34.2-2.96"/><path class="cls-1" d="m116.62,104.47c8.33,9.5,11.47,20.43,11.91,32.02"/><path class="cls-1" d="m87.96,142.97c-12.2-43.08-59.77-41.81-59.77-41.81"/><path class="cls-1" d="m28.19,119.65c18.61-2.43,36.48,12.1,40.46,26.59"/><path class="cls-1" d="m26.5,45.1c17.67-1.15,32.99-9.74,42.36-24.15"/><path class="cls-1" d="m146.73,55.5c-6.73,18.8-6.94,43.21,1.86,58.4"/></svg>