<?xml version="1.0" encoding="UTF-8"?><svg id="Layer_1" xmlns="http://www.w3.org/2000/svg" xmlns:xlink="http://www.w3.org/1999/xlink" viewBox="0 0 165.3 163.71"><defs><style>.cls-1{stroke:#fff;stroke-linejoin:bevel;stroke-width:7px;}.cls-1,.cls-2{fill:none;}.cls-3{clip-path:url(#clippath);}</style><clipPath id="clippath"><circle class="cls-2" cx="82.59" cy="81.85" r="81.83"/></clipPath></defs><g class="cls-3"><circle cx="82.59" cy="81.85" r="81.83"/><path class="cls-1" d="m107.49,104.64c-10.86,16.29-26.15,27.64-43.99,36.15"/><path class="cls-1" d="m58.87,107.39c12.59,18.54,29.64,29.12,51.94,30.35"/><path class="cls-1" d="m80.09,11.68c12.89,15.72,11.08,51.34-9.27,65.12"/><path class="cls-1" d="m-3.68,63.94c20.42-7.48,40.8,11.58,37.44,28.34-2.87,14.34-20.97,24.1-37.5,19.2"/><path class="cls-1" d="m167.33,68.95c-13.29-5.76-32.47.48-36.65,15.21-6.3,22.19,20.9,33.38,38.58,31.1"/><path class="cls-1" d="m25.67,7.7c28.95,40.53,84.34,38.51,117.45,1.63"/><path class="cls-1" d="m9.33,31.41c36.73,40.53,107.02,38.51,149.03,1.63"/><path class="cls-1" d="m172.9,82.56c-5.87-.84-12.52-2.38-18.31-.35-5.04,1.76-8.67,7.89-6.35,13.02,2.19,4.84,8.42,6.89,13.33,7.13,2.41.12,4.82.23,7.23.35"/><path class="cls-1" d="m-7.6,97.45c7.7,1.1,26.84,3.83,25.58-9.06-.66-6.79-8.19-10.43-14.26-10.73-2.41-.12-4.82-.23-7.23-.35"/></g></svg>