<?xml version="1.0" encoding="UTF-8"?><svg id="Layer_1" xmlns="http://www.w3.org/2000/svg" viewBox="0 0 163.7 163.7"><defs><style>.cls-1{fill:none;stroke:#fff;stroke-linejoin:bevel;stroke-width:7px;}</style></defs><circle cx="81.85" cy="81.85" r="81.83"/><path class="cls-1" d="m135.55,52.49c2.34-12.17-6.93-23.53-19.51-21.45-8.61,1.43-16.44,7-25.45,5.61-10.04-1.54-17.64-9.61-27.72-11.04-9.5-1.35-19.44,1.1-27.14,6.83"/><path class="cls-1" d="m138.91,86.51c1.46-8.33-2.52-16.48-9.35-21.23-5.79-4.03-13.33-4.84-20.13-3.42-8.97,1.87-16.38,8.47-25.56,9.42-7.95.82-15.35-3.05-22.6-5.69-8.23-3-16.57-3.4-25.08-1.18-7.2,1.88-14.21,5.53-19.7,10.6-.35.32-.69.65-1.02.99"/><path class="cls-1" d="m49.04,90.92c7.97-.7,15.98-1.16,23.98-.98,5.86.13,11.89.42,17.55,2.08,3.42,1.01,6.93,2.73,9.51,5.22,2.19,2.11,3.77,4.97,3.92,8.02.4,8.19-9.64,11.82-16.19,12.96-19.84,3.46-40.46.57-59.33-6.1"/><path class="cls-1" d="m77.75,55.71c-14.84-17.24-44.66-14.05-60.53.45"/><path class="cls-1" d="m89.9,117.79c8.99-1.45,12.45-5.19,20.19-5.64,5.48-.32,12.3,1.98,12.27,8.48-.02,3.2-1.71,6.2-3.98,8.45-17.05,17-43.54,14.4-64.66,8.26"/><path class="cls-1" d="m127.55,100.16c8.38,4.32,11.57,15.67,7.95,24.1"/></svg>