<?xml version="1.0" encoding="UTF-8"?><svg id="Layer_1" xmlns="http://www.w3.org/2000/svg" viewBox="0 0 163.7 163.7"><defs><style>.cls-1{fill:none;stroke:#fff;stroke-miterlimit:10;stroke-width:7px;}</style></defs><circle cx="81.85" cy="81.85" r="81.83"/><path class="cls-1" d="m67.29,67.25c-6.04-.42-13.87-4.23-14.03-11.14-.14-6.14,5.11-12.45,10.67-14.55,6.38-2.41,14.19-.32,18.52,4.95,1.99,2.42,3.29,5.56,2.95,8.68-.36,3.3-2.49,6.19-5.11,8.22-3.41,2.64-7.74,4.06-12.05,3.94-19.25-.52-21.85-24.17-11.81-36.48,6.92-8.48,18.69-12.99,29.5-11.97,6.95.66,13.78,3.65,18.67,8.68,5.26,5.4,7.15,13.14,6.74,20.52-.44,8.08-2.82,16.14-7.77,22.63-5.38,7.06-13.63,11.2-21.21,15.45-2.37,1.33-4.76,2.61-7.2,3.8l22.02.64-33.92,18.94,52.33.29s-3.93,5.6-6.23,8.09c-13.34,14.44-34.99,13.97-52.74,10.05-.93-.21-1.87-.42-2.8-.65-2.23-.54-4.43-1.17-6.62-1.88-6.28-2.04-12.34-4.76-18.04-8.09,6.82,15.3,22.15,25.96,38.6,29.07,29.76,5.63,66.43-10.6,73.32-42.12"/></svg>