<?xml version="1.0" encoding="UTF-8"?><svg id="Layer_1" xmlns="http://www.w3.org/2000/svg" viewBox="0 0 163.7 163.7"><defs><style>.cls-1{fill:none;stroke:#fff;stroke-linejoin:bevel;stroke-width:7px;}</style></defs><circle cx="81.85" cy="81.85" r="81.83"/><path class="cls-1" d="m102.26,21.63c-14.28,37.49-28.56,74.98-42.83,112.46"/><path class="cls-1" d="m56.74,22.22c13.66,38.96,32.83,74.64,55.63,105.9"/><line class="cls-1" x1="43.65" y1="114.04" x2="118.03" y2="41.68"/><line class="cls-1" x1="37.08" y1="46.25" x2="124.6" y2="109.47"/><line class="cls-1" x1="134.09" y1="62.64" x2="27.59" y2="93.08"/><path class="cls-1" d="m151.4,70.45c-7.83,16.39-36.1,15.68-36.1,15.68,0,0,23.79,2.29,33.41,19.63"/><path class="cls-1" d="m13.87,86.9c8.27-16.18,32.21-15.05,32.21-15.05,0,0-19.41-2.57-28.56-20.17"/><line class="cls-1" x1="78.93" y1="32.53" x2="84.49" y2="123.38"/><path class="cls-1" d="m74.64,150.89c.59.89,1.47,1.7,2.65,2.38,4.84,2.8,18.93,1.3,15.8-7.2-2.03-5.52-12.75-6.77-16.78-3.17-2.73,2.44-3.33,5.51-1.67,7.99Z"/><path class="cls-1" d="m93.97,148.45c13.89-2.46,36.91-14.08,44.13-28.61"/><path class="cls-1" d="m27.35,120.8c9.64,16.91,25.86,27.87,45.72,26.91"/></svg>