<?xml version="1.0" encoding="UTF-8"?><svg id="Layer_1" xmlns="http://www.w3.org/2000/svg" viewBox="0 0 163.66 163.66"><defs><style>.cls-1{fill:none;stroke:#fff;stroke-linejoin:bevel;stroke-width:7px;}</style></defs><circle cx="81.83" cy="81.83" r="81.83"/><path class="cls-1" d="m47.3,86.71c8.15,2.48,18.91,1.66,21.55-7.94,4.58-16.64-12.96-32.78-26.63-38.9-5.91-2.65-13.78-3.8-18.57,1.47-4.74,5.21-4.51,13.97-2.34,20.22,3.82,11,12.95,19.93,23.65,24.31.75.31,1.53.58,2.34.83Z"/><path class="cls-1" d="m95.49,68.97c-.04,3.44.59,6.83,2.08,9.97,2.88,6.07,8.66,10.64,15.57,10.07,17.99-1.49,27.39-27.69,21.55-42.82-4.69-12.16-20.52-8.71-28.08-1.54-6.22,5.9-11,15.28-11.12,24.32Z"/><path class="cls-1" d="m86.82,89.05c.98,6.8,10.32,32.82-.16,35.25-4.9,1.14-11.47-2.52-14.57-6.13"/><line class="cls-1" x1="137.17" y1="122.27" x2="89.35" y2="149.11"/><path class="cls-1" d="m50.95,29.19c7.04,4.83,14.08,9.66,21.12,14.49"/><path class="cls-1" d="m92.92,37.64c6.63-6.25,13.47-12.27,20.51-18.06"/><path class="cls-1" d="m21.08,84.44c7.95,8.62,18.5,14.8,29.9,17.54"/><path class="cls-1" d="m112.13,101.46c6.62.14,13.27-2,18.57-5.97,5.3-3.97,9.22-9.74,10.96-16.13"/></svg>