<?xml version="1.0" encoding="UTF-8"?><svg id="Layer_1" xmlns="http://www.w3.org/2000/svg" viewBox="0 0 163.66 163.66"><defs><style>.cls-1{fill:none;stroke:#fff;stroke-miterlimit:10;stroke-width:7px;}</style></defs><circle cx="81.83" cy="81.83" r="81.83"/><path class="cls-1" d="m29.56,121.72c20.57.75,35.92-18.84,35.92-18.84,0,0,12.06,6.78,21.16,6.78s20.65-6.32,20.65-6.32c0,0,12.74,19.94,27.87,19.25"/><line class="cls-1" x1="47.59" y1="130.19" x2="121" y2="131.18"/><line class="cls-1" x1="79.1" y1="67.97" x2="74.46" y2="83.75"/><line class="cls-1" x1="90.93" y1="60.75" x2="95.74" y2="87.14"/><path class="cls-1" d="m141.67,86.03c-3.04,1.67-6.89,1.41-10.22.34-8.55-2.74-15.35-10.25-18.75-18.4-1.6-3.83-2.09-8.79.1-12.51,3.67-6.24,11.24-4.94,16.73-2.18,5.63,2.83,10.45,7.27,13.58,12.76,2.97,5.22,5.39,13.05.87,18.15-.69.77-1.46,1.38-2.3,1.84Z"/><path class="cls-1" d="m31.34,90.12c7.82,2.29,15.28-1.63,19.8-8,4.05-5.7,7.38-15.45,3.65-22.06-.65-1.15-1.5-2.18-2.52-3.03-.3-.25-.61-.48-.93-.7-4.72-3.14-11.29-1.58-15.95.91-6.49,3.46-12.97,9.9-14.38,17.38-1.17,6.21,2.51,12.25,8.21,14.73.71.31,1.41.57,2.11.77Z"/><path class="cls-1" d="m26.72,39.58c7.92-3.09,17.42-4,25.9-2.32,5.25,1.04,10.03,3.26,15.2,4.51,5.9,1.43,13.21,2.62,19.19,1.03,7.11-1.89,11.82-7.48,18.27-10.45,8.23-3.79,18.09-3.11,27.33-2.32"/><line class="cls-1" x1="67.99" y1="144.16" x2="98.13" y2="144.16"/></svg>