<?xml version="1.0" encoding="UTF-8"?><svg id="Layer_1" xmlns="http://www.w3.org/2000/svg" viewBox="0 0 163.66 163.66"><defs><style>.cls-1{fill:none;stroke:#fff;stroke-linejoin:bevel;stroke-width:7px;}</style></defs><circle cx="81.83" cy="81.83" r="81.83"/><path class="cls-1" d="m83.59,34.8c-15.82-4.17-35.33-.71-47.69,10.49-11.69,10.59-10.88,28.16,1.21,37.88,9.79,7.87,23.89,10.23,36.09,8.43,5.1-.76,10.2-2.3,14.58-5.09,3.41-2.17,6.16-5.61,7.42-9.47"/><path class="cls-1" d="m72.61,60.6c11.81-6.5,32.13-9.98,42.66.74,7.69,7.83,7.41,20.93,2.77,30.24-1.05,2.1-2.31,4.1-3.77,5.94"/><path class="cls-1" d="m26.7,90.23c-9.83,13.38.22,29.76,13.75,35.46,13.98,5.89,32.44-.03,38.28-14.59"/><path class="cls-1" d="m101.08,101.06c-10.71,14.59.54,32.44,18.49,26.24,19.79-6.83,33-33.47,25.35-53.17"/><path class="cls-1" d="m61.38,148.21c9.93-8.53,26.34-8.1,35.81.94"/><path class="cls-1" d="m107.26,19.38c-4.9,6.6-6.53,16.5,1.05,21.85,6.72,4.75,16.74,1.71,23.51-1.4"/></svg>