<?xml version="1.0" encoding="UTF-8"?><svg id="Layer_1" xmlns="http://www.w3.org/2000/svg" viewBox="0 0 163.7 163.7"><defs><style>.cls-1{fill:none;stroke:#fff;stroke-linejoin:bevel;stroke-width:7px;}</style></defs><circle cx="81.85" cy="81.85" r="81.83"/><path class="cls-1" d="m140.84,63.9c-9.59,8.69-25.1,7.83-31.93-3.23-6.35-10.29-3.83-23.04-8.41-33.85-4.34-10.25-18-14.99-28.64-9.85-13.68,6.61-10.62,21.93-13.45,33.56-1.88,7.71-6.83,16.21-16.07,18.36-8.06,1.87-18.87-1.58-21.51-9.37"/><path class="cls-1" d="m131.91,81.94c-10.09,12.98-9.92,25.6,1.7,36.96"/><path class="cls-1" d="m32.32,83.85c10.68,11.72,11.32,23.47,1.88,35.24"/><path class="cls-1" d="m63.56,82.33c.77,10.42,5.07,27.2,19.19,27.86,16.09.75,17.35-18.37,16.89-28.96"/><path class="cls-1" d="m47.51,133.75c1.65-5.17,9.36-7.66,15.91-5.88,9.24,2.52,8.71,10.48,12.39,16.01,4.56,6.85,12.97,6.22,17.65,0,4.79-6.36,2.18-17.15,15.66-17.51,7.22-.2,11.62,3.42,11.36,8.69"/><path class="cls-1" d="m117.07,38.25c-.63,4.56-.29,10.99,3.73,14.32,5.12,4.25,12.53,2.26,15.11-3.41"/><path class="cls-1" d="m46.5,37.02c.63,4.56.29,10.99-3.73,14.32-5.12,4.25-12.53,2.26-15.11-3.41"/><path class="cls-1" d="m139.63,92.28c-2.89,5.06-1.74,11.81,2.7,15.81"/><path class="cls-1" d="m25.1,95.94c3.06,4.12,3.17,9.91.28,14.13"/><path class="cls-1" d="m84.3,29.54c-16.61,12.45,1.47,23.33.43,32.44-.66,5.73-5.66,8.72-10.22,10.24"/></svg>