<?xml version="1.0" encoding="UTF-8"?><svg id="Layer_1" xmlns="http://www.w3.org/2000/svg" viewBox="0 0 163.7 163.7"><defs><style>.cls-1{stroke-miterlimit:10;}.cls-1,.cls-2{fill:none;stroke:#fff;stroke-width:7px;}.cls-2{stroke-linejoin:bevel;}</style></defs><circle cx="81.85" cy="81.85" r="81.83"/><path class="cls-1" d="m33.24,27.98c26.58,25.44,58.78,46,98.27,60.24l-5.17-16.69,28.67,7.75s-8.12-12.12-9.54-16"/><path class="cls-2" d="m77.07,112.36c4.57-.34,9.59-.69,14.06.49,5.83,1.54,6.52,7.21.66,10.11-1.54.76-3.24,1.09-4.93,1.36,3.25-.53,7.59-.96,10.66.52,4.51,2.19,2.25,7.42-.52,9.92-4.01,3.63-10.01,5.64-15.32,6.05"/><path class="cls-2" d="m43.36,83.43c-7.59,4.98-9.87,15.73-9.25,24.2.51,7.06,3.95,18.01,12.3,18.97,7.35.85,12.2-6.89,14.4-12.84,3.81-10.3,5.69-32.62-10.78-32.35-2.56.04-4.78.77-6.67,2.02Z"/><path class="cls-2" d="m31.47,49.7c3.18,16.65-4.64,34.86-18.9,44.02"/><path class="cls-2" d="m127.31,104.31c7.79.71,9.39,11.25,6.32,16.96-3.07,5.72-11.43,3.91-14.32-1.06-3.27-5.62.33-16.6,7.99-15.9Z"/><path class="cls-2" d="m55.63,18.89c13.78,13.36,32.95,28.23,58.46,36.26"/><path class="cls-2" d="m83.93,15.6c11.71,10.94,38.36,27.15,54.17,29.8"/></svg>