<?xml version="1.0" encoding="UTF-8"?><svg id="Layer_1" xmlns="http://www.w3.org/2000/svg" viewBox="0 0 166.82 163.7"><defs><style>.cls-1{fill:none;stroke:#fff;stroke-linejoin:bevel;stroke-width:7px;}</style></defs><circle cx="83.06" cy="81.85" r="81.83"/><path class="cls-1" d="m65.34,109.08c7.89,6.67,18.66,8.58,28.57,2.24,7.86-5.03,12.82-13.41,16.03-22.05,4.19-11.28,5.83-23.5,4.79-35.55-.62-7.2-2.24-14.46-5.88-20.81-3.64-6.36-9.46-11.75-16.57-13.9-11.38-3.44-23.97,2.23-31.06,11.34-7.1,9.11-9.58,20.94-10.21,32.47-.66,12.23.94,25.99,7,37.15,1.93,3.56,4.44,6.66,7.34,9.11Z"/><path class="cls-1" d="m92.29,40.97c-4.44-4.95-12.38-4.02-16.55,1.96-4.67,6.7-5.32,21.96,5.21,24.91,13.86,3.88,16.67-14.54,13.57-23.06-.55-1.52-1.32-2.79-2.23-3.81Z"/><path class="cls-1" d="m52.18,81.12c8.17-.82,19.62-8.17,21.84-17.87"/><path class="cls-1" d="m18.12,142.96c30.79-8.99,64.3-38.96,63.06-76.41"/><path class="cls-1" d="m85.68,68.54c-5.72,23.75,28.34,66.79,58.03,79.05"/><path class="cls-1" d="m92.79,62.72c4.07,11.59,10.33,16.77,20.79,14.03"/><path class="cls-1" d="m44.85,130.72c17.7,17.78,56.45,19,74.4.82"/><path class="cls-1" d="m164.16,44.63c-8.95,10.43-12.88,24.29-14.72,37.91-1.1,8.16-1.55,16.5-.16,24.62,1.39,8.12,4.73,16.05,10.43,22.01"/><path class="cls-1" d="m3.08,34.97c16.57,30.76,18.7,65.13,5.7,92.71"/><path class="cls-1" d="m139.59,61.82c-9.23,14.26-11.58,32.78-6.19,48.89"/><path class="cls-1" d="m27.15,56.37c9.11,19.58,7.8,36.87,3.32,51.76"/></svg>