<?xml version="1.0" encoding="UTF-8"?><svg id="Layer_1" xmlns="http://www.w3.org/2000/svg" viewBox="0 0 163.66 163.66"><defs><style>.cls-1{fill:none;stroke:#fff;stroke-linejoin:bevel;stroke-width:7px;}</style></defs><circle cx="81.83" cy="81.83" r="81.83"/><path class="cls-1" d="m101.39,22.15c-24.96-9.57-55.17,4.98-63.29,30.37-2.42,7.56-2.85,15.64-.95,23.37,5.65,22.94,27.45,37.31,50.71,35.19,11.81-1.07,23.32-6.81,30.49-16.25,7.16-9.45,9.51-22.62,5.1-33.63-3.54-8.83-11.06-15.74-19.75-19.63-8.53-3.82-18.4-4.88-27.38-2.27s-16.92,9.02-20.75,17.55c-3.83,8.53-3.22,19.06,2.11,26.74,3.94,5.67,10.15,9.54,16.82,11.32,16.2,4.3,37.02-2.43,35.39-22.23-1.56-18.97-29.99-29.2-39.26-10.06-2.98,6.16-1.34,13.82,4.26,17.84,6.47,4.64,20.96,6.42,23.64-3.71,2.23-8.41-8.78-12.88-13.55-5.85"/><path class="cls-1" d="m21.66,54.81c-4.11,16.23-.78,34.19,8.87,47.87"/><path class="cls-1" d="m139.99,55.81c6.78,16.22,4.15,36-6.64,49.88"/><path class="cls-1" d="m72.64,131.6c-3.1,2.91-4.66,7.34-3.16,11.89,3.1,9.39,18.99,10.71,23.68,2.03,2.97-5.48-.19-12.16-5.15-15.19-4.83-2.95-11.2-2.66-15.38,1.27Z"/><path class="cls-1" d="m111.45,120.01c-2.91-.19-7.4.32-9.01,3.17-2.2,3.88,2.37,7.51,4.72,9.96,1.29,1.35,2.5,2.82,3.16,4.56,1.37,3.62-.62,6.99-3.37,9.28"/><path class="cls-1" d="m51.49,120.01c2.91-.19,7.4.32,9.01,3.17,2.2,3.88-2.37,7.51-4.72,9.96-1.29,1.35-2.5,2.82-3.16,4.56-1.37,3.62.62,6.99,3.37,9.28"/></svg>