<?xml version="1.0" encoding="UTF-8"?><svg id="Layer_1" xmlns="http://www.w3.org/2000/svg" viewBox="0 0 163.67 172.3"><defs><style>.cls-1{fill:none;stroke:#fff;stroke-linejoin:bevel;stroke-width:7px;}</style></defs><circle cx="81.83" cy="90.46" r="81.83"/><path class="cls-1" d="m19.7,92.47c12.95,14.56,26.12,13.86,39.34,4.63"/><path class="cls-1" d="m96.92,98.58c18.75,3.6,34.32-1.3,46.16-16.17"/><path class="cls-1" d="m120.55,36.85c-13.05,40.28-3.97,68.42,27.93,84.03"/><path class="cls-1" d="m29.88,52.23c17.14,36.56,12.99,64.58-2.38,88.09"/><path class="cls-1" d="m74.66,127.59c-4.24,6.55-3.08,16.17.41,22.78,6.68,12.64,22.97,10.36,24.39-4.42.8-8.34-3.25-22.28-13.22-23.38-5.52-.61-9.31,1.52-11.58,5.03Z"/><path class="cls-1" d="m27.51,77.51c8.41,7.65,17.1,9.29,26.23,1.44"/><path class="cls-1" d="m102.25,75.74c10.66,6.85,18.94,4.15,26.01-3.37"/><path class="cls-1" d="m58.41,124.97c14.5-18.79,31.37-19.49,50.35-4.1"/><path class="cls-1" d="m72.33.82c-.72,3.02-.12,6.32,1.62,8.89,4.35,6.41,7.41,14.25,6.04,22.09-1.36,7.82-8.2,13.91-7.47,22.21.62,7.01,5.71,12.54,7.4,19.24,1.32,5.24-1.29,10.33-2.83,15.21-2.37,7.52-.5,14.51,4.11,20.74"/><path class="cls-1" d="m97.08,43.55c-3.11,6.05-3.51,13.01-1.11,20.8"/><path class="cls-1" d="m51.67,50.4c3.92,6.05,6.93,12.68,8.92,19.61"/></svg>