<?xml version="1.0" encoding="UTF-8"?><svg id="Layer_1" xmlns="http://www.w3.org/2000/svg" viewBox="0 0 163.7 163.7"><defs><style>.cls-1{fill:none;stroke:#fff;stroke-linejoin:bevel;stroke-width:7px;}</style></defs><circle cx="81.85" cy="81.85" r="81.83"/><path class="cls-1" d="m16.52,63.37c12.44-9.3,34.55-14.91,43.53,1.92,6.33,11.87,3.59,27.09,12.22,37.99,4.97,6.27,13.29,8.31,19.87,3.34,14.83-11.19,7.06-34.9,20.65-46.82,9.08-7.97,23.51-5.48,34.31-3.62.03,0,.05,0,.08.01"/><line class="cls-1" x1="131.15" y1="71.31" x2="125.2" y2="96.63"/><line class="cls-1" x1="31.29" y1="75.31" x2="39.71" y2="98.76"/><path class="cls-1" d="m132.12,133.76c-2.39-2.69-3.79-6.48-7.03-8.35-9.02-5.2-12.6,7.14-19.55,8.74-2.48.57-4.9-1.12-6.72-2.9-3.61-3.54-7.96-6.54-12.98-3.59-4.1,2.41-5.99,8.23-11.36,8.23-2.61,0-4.93-1.63-6.88-3.37-2.5-2.23-4.73-4.86-8.29-5.19-7.79-.73-11.54,8.36-10.33,14.88"/><path class="cls-1" d="m66.59,22.28s4.31,29.74,16.56,28.69c12.25-1.04,11.61-29.38,11.61-29.38"/><line class="cls-1" x1="104.98" y1="44.64" x2="123" y2="28.4"/><line class="cls-1" x1="38.06" y1="32.34" x2="58.23" y2="43.91"/></svg>