<?xml version="1.0" encoding="UTF-8"?><svg id="Layer_1" xmlns="http://www.w3.org/2000/svg" viewBox="0 0 163.66 163.66"><defs><style>.cls-1{fill:none;stroke:#fff;stroke-linejoin:bevel;stroke-width:7px;}</style></defs><circle cx="81.83" cy="81.83" r="81.83"/><path class="cls-1" d="m40.55,27.09c25.73,9.91,51.93,8.01,76.2-4.49"/><path class="cls-1" d="m31.43,45.91c15.74,6.66,32.81,11.19,50.02,10.54,17.14-.65,33.04-7.33,47.89-15.47"/><path class="cls-1" d="m19.86,66.27c31.27,19.12,74.31,20.02,105.4.21,5.31-3.38,9.92-7.46,14.45-11.82"/><path class="cls-1" d="m52.76,90.88c-4.23,13.91-3.47,28.33,4.81,41.92"/><path class="cls-1" d="m109.49,90.48c-7.62,15.55-8.06,30.07-2.05,43.58"/><path class="cls-1" d="m128.91,103.07c-4.02,6.37-3.31,13.36-.63,20.23"/><path class="cls-1" d="m80.98,113.56c-3.47,8.64-3.01,27.12,1.12,36.72"/><path class="cls-1" d="m31.27,104.22c-1.9,6.39-.66,15.66,2.67,21.07"/></svg>