<?xml version="1.0" encoding="UTF-8"?><svg id="Layer_1" xmlns="http://www.w3.org/2000/svg" viewBox="0 0 163.67 163.67"><defs><style>.cls-1{fill:none;stroke:#fff;stroke-linejoin:bevel;stroke-width:7px;}</style></defs><circle cx="81.83" cy="81.83" r="81.83"/><path class="cls-1" d="m48.85,23.93c19.65-7,41.99-6.6,61.42.94,18.57,7.21,36.84,22.73,33.83,44.79-.55,4.06-1.96,7.98-4.19,11.42-4.7,7.25-13.81,13.63-22.81,12.04-4.07-.72-8.14-3.01-10.34-6.57-2.96-4.79-2.26-10.42,1.15-14.75,3.06-3.87,8.23-6.32,12.94-3.87,4.68,2.43,5.59,8.79,1.93,12.53l-.21.21"/><path class="cls-1" d="m87.23,52.67c-10.97-10.93-29.46-16.49-44.55-12.6-8.72,2.25-16.11,8.36-19.51,16.74-.29.72-.55,1.46-.77,2.21-2.23,7.7.49,17.05,7.46,21,7.08,4.01,19.41,2.66,23.43-5.21,1.57-3.07,1.47-6.94-.26-9.93-2.07-3.58-6.59-6.16-10.6-4.4-3.71,1.63-5.44,5.76-4.67,9.64"/><path class="cls-1" d="m83.28,62.84c5.42,11.35,10.71,29.83.72,40.26-2.79,2.91-6.62,4.82-10.6,5.43-8.78,1.34-15.55-4.11-21.56-9.73"/><path class="cls-1" d="m30.86,119.76c13.88,16.52,34.07,28.39,56.05,28.33,5.86-.02,11.72-.83,17.36-2.42,5.25-1.49,10.69-3.92,14.74-7.65,6.28-5.78,7.73-14.63,2.82-21.73-4.24-6.14-12.4-9.81-19.4-6.01-4.63,2.52-6.3,8.88-3.89,13.49,3.85,7.35,14.16,4.53,13.66-3.69"/><path class="cls-1" d="m54.65,119.82c8.23,8.49,20.41,12.99,32.18,11.88"/></svg>