<?xml version="1.0" encoding="UTF-8"?><svg id="Layer_1" xmlns="http://www.w3.org/2000/svg" viewBox="0 0 165.21 163.7"><defs><style>.cls-1{fill:none;stroke:#fff;stroke-linejoin:bevel;stroke-width:7px;}</style></defs><circle cx="81.85" cy="81.85" r="81.83"/><path class="cls-1" d="m95.94,162.45c8.02-23.51-1.71-57.07-11.94-73.15-2.57,24.54-23.03,46.62-38.86,65.66.39.19.76.4,1.15.59"/><path class="cls-1" d="m137.85,141.52c-10.23-10.73-17.55-24.61-20.88-39.37,3.33,14.76,10.65,28.64,20.88,39.37m-92.72,13.43c15.83-19.04,36.3-41.12,38.86-65.66,10.23,16.08,19.96,49.64,11.94,73.15m-77.83-29.27c10.7-7.01,21.05-16.92,29.88-31.93-8.83,15.01-19.18,24.92-29.88,31.93M1.78,64.96c21.04-5.34,42.45-15.56,58.3-35.66C44.23,49.41,22.82,59.62,1.78,64.96m161.87,14.7c-17.73-8.85-32.97-23.92-41.33-41.46,8.35,17.53,23.59,32.6,41.33,41.46M91.34,28.95c-14.75,30.11-40.16,51.88-73.85,58.76,33.69-6.88,59.1-28.66,73.85-58.76,4.65,24.29,25.62,57.57,54.87,68.74-29.24-11.16-50.22-44.44-54.87-68.74Z"/></svg>