<?xml version="1.0" encoding="UTF-8"?><svg id="Layer_1" xmlns="http://www.w3.org/2000/svg" viewBox="0 0 163.71 163.71"><defs><style>.cls-1{fill:none;stroke:#fff;stroke-linejoin:bevel;stroke-width:7px;}</style></defs><circle cx="81.85" cy="81.85" r="81.83"/><path class="cls-1" d="m16.43,68.89c-4.4,40.64,30.21,84.09,73.14,78.56,34.48-4.44,58.73-39.98,58.07-73.34-.13-6.32-1.02-12.72-3.1-18.7"/><path class="cls-1" d="m54.14,109.38c-33.29-21.86-30.15-76.16,8.58-90.23,18.07-6.57,40.42-3.54,55.11,9.5,13.91,12.34,17.74,32.66,14.17,50.27-2.48,12.24-9.26,24.15-21.27,29.08"/><path class="cls-1" d="m68.98,99.75c0,8.37-.31,18.23,3.9,25.54,2.19,3.81,5.74,5.89,9.79,5.87,12.79-.05,14.53-20.61,14.9-30.97.29-8.01.12-16.73-2.03-24.43-1.75-6.28-6.97-12.5-13.41-11.24-6.42,1.25-10.21,9.24-11.39,15.71-1.16,6.33-1.77,12.94-1.77,19.53Z"/><path class="cls-1" d="m50.91,71.89c-4.78-15.6.67-33.03,19.41-36.75"/><path class="cls-1" d="m116.98,76c7.38-17.87.58-33.47-15.55-39.44"/></svg>