<?xml version="1.0" encoding="UTF-8"?><svg id="Layer_1" xmlns="http://www.w3.org/2000/svg" viewBox="0 0 163.71 163.71"><defs><style>.cls-1{fill:none;stroke:#fff;stroke-miterlimit:10;stroke-width:7px;}</style></defs><circle cx="81.85" cy="81.85" r="81.83"/><polyline class="cls-1" points="64.78 27.84 80.47 77.17 65.23 126.51"/><line class="cls-1" x1="80.47" y1="77.17" x2="110.57" y2="114.76"/><path class="cls-1" d="m130.08,45.17c-5.87-2.11-12.68-2.71-18.81-1.54-6.23,1.19-12.67,6.25-13,13-.14,2.89.95,5.77,2.7,8.07,4.24,5.59,11.17,8.3,17.98,8.95,8.25.79,15.45-2.01,23.22-4.3"/><path class="cls-1" d="m21.06,48c6.52-.6,13.16-.8,19.67.06,8.86,1.18,19.32,7.18,17.44,17.58-.74,4.1-3.32,8.16-6.65,10.68-7.14,5.4-16.95,6.21-25.57,5.32"/><polyline class="cls-1" points="77 153.37 92.16 131.96 113.52 144.04"/><path class="cls-1" d="m134.29,91.13c-6.26,1.89-14.34,7.08-11.87,14.81,1.46,4.56,6.37,6.6,10.82,6.71,5.84.14,10.42-3.15,15.17-6.1"/><path class="cls-1" d="m33.78,105.07c4.09-.77,8.8-1.45,12.83-.09,5.32,1.8,7.71,9.06,3.65,12.34-5.72,4.62-21.38,4.15-21.38,4.15"/></svg>