<?xml version="1.0" encoding="UTF-8"?><svg id="Layer_1" xmlns="http://www.w3.org/2000/svg" viewBox="0 0 163.7 163.7"><defs><style>.cls-1{fill:none;stroke:#fff;stroke-linejoin:bevel;stroke-width:7px;}</style></defs><circle cx="81.85" cy="81.85" r="81.83"/><path class="cls-1" d="m71.03,44.02c.38,7.26,2.77,14.22,6.49,17.34,12.42,10.41,21.17-21.52,12.67-36.89-6.5-11.74-16.68-1.86-18.81,12.1-.37,2.42-.48,4.95-.35,7.45Z"/><path class="cls-1" d="m70.71,128.03s0,.09,0,.13c-.02,6.44,2.55,19.28,10.98,19.52,11.73.34,14.59-19.63,13.49-27.64-.48-3.5-1.16-7.18-2.69-10.38-3.73-7.8-12.35-7.67-16.82-.92-3.58,5.39-4.91,12.91-4.95,19.29Z"/><path class="cls-1" d="m71.38,36.57c-9.86,2.42-21.66,5.15-28.68,13.12-6.6,7.5-4.67,19.19,2.11,25.87,8.15,8.03,20.97,11.66,32.04,12.83,13.11,1.38,28.33-1.53,39.02-9.61,9.27-7.01,14.3-19.4,5.39-28.68-6.86-7.15-18.38-10.84-28.12-10.84"/><path class="cls-1" d="m119.24,139.1c-3.17-2.46-7.34-6.25-7.87-10.64-.64-5.26,4.23-7.89,8.57-7.75,2.89.09,10.99.89,11.59-3.2.82-5.56-19.1-15.16-5.79-19.32,4.94-1.55,14.78,1.65,13.95-7.09-.37-3.97-3.51-7.02-3.89-10.96-.8-8.27,10.72-6.42,13.8-11.86,2.97-5.24-1.45-12.03-5.18-15.62"/><path class="cls-1" d="m42.91,139.1c3.17-2.46,7.34-6.25,7.87-10.64.64-5.26-4.23-7.89-8.57-7.75-2.89.09-10.99.89-11.59-3.2-.82-5.56,19.1-15.16,5.79-19.32-4.94-1.55-14.78,1.65-13.95-7.09.37-3.97,3.51-7.02,3.89-10.96.8-8.27-10.72-6.42-13.8-11.86-2.97-5.24,1.45-12.03,5.18-15.62"/></svg>