<?xml version="1.0" encoding="utf-8"?>
<!-- Generator: Adobe Illustrator 27.1.1, SVG Export Plug-In . SVG Version: 6.00 Build 0)  -->
<svg version="1.1" id="Layer_1" xmlns="http://www.w3.org/2000/svg" xmlns:xlink="http://www.w3.org/1999/xlink" x="0px" y="0px"
	 viewBox="0 0 1440 1024" style="enable-background:new 0 0 1440 1024;" xml:space="preserve">
<style type="text/css">
	.st0{fill:none;stroke:#292929;stroke-miterlimit:10;}
</style>
<path class="st0" d="M-3338.8-2261.9c1300.4-225.9,2659.2-133.6,3911.5,308.3C1640.5-1576.7,3048.6-848.7,2997.9,545
	c-45.1,1238.5-1074.7,2226.2-2192,2420.5c-688.5,119.8-1391.4,0.7-2052.9-212.3c-625.4-201.1-1247-470.7-1807.1-828.5
	c-536.6-342.7-1038.9-789.2-1349.1-1372.7c-261.5-492-388-1112-173.4-1648.6c255.2-637.8,887.4-825.2,1486.8-900.4
	c570.7-71.5,1153.4-33.5,1715,92.9C-340.9-1671.7,694.7-1118,1334.1-208.3c557,792.6,693.5,1948.2,1.8,2707.6
	c-878.8,964.8-2366.6,619.2-3393.7,158.3c-981.1-440.3-2122.6-1175.2-2419.1-2335.5c-152.6-597.4,3-1192.5,489.9-1555.2
	c427.9-318.5,992.1-419.2,1505.3-431.1c1133.2-26.2,2454.1,402,3216.7,1325.7c385.7,467,616.8,1080.6,543.2,1704.6
	c-70,592.3-413.9,1151.4-930,1414.5c-592.9,302-1325.7,320.5-1969.2,247.9c-622-70.4-1236.9-250.1-1787.9-566.4
	c-481.8-276.6-960.8-717.7-1118.3-1291.5c-144.7-527.4,88.1-1025.1,509-1320c971.8-680.6,2460.3-318.8,3094.1,696.9
	c318.9,511.1,357.1,1172.7,6.2,1676.7c-337.8,485.3-897.3,735.1-1458.7,753.7c-1218.8,40.6-2416.3-840-3068.9-1876.2
	c-579.8-920.8-922.1-2447.3,108-3169.4c957.2-671.1,2353.8-508.1,3307.8,76.9c445,272.8,854.1,666.7,1075.3,1164
	c217.3,488.5,274.8,1115.7-150.7,1500c-378.7,341.9-937.2,432.8-1419,373.5c-546.3-67.1-1045.6-361-1413.9-788
	c-752-871.8-1201.1-2362.1-305.9-3297.2c860.1-898.3,2279.9-1025.1,3405.7-769.1c1199.5,272.8,2339,1048.9,2853.7,2255.4
	C2255.9-988.6,2372-344.7,2245.6,266.4c-122,589.9-500.6,1078.8-1005.2,1356.4C664.2,1939.9,11.4,1956-600.8,1746.5
	c-588.5-201.4-1172.9-547.9-1639.7-975.8c-450.9-413.4-807.4-1009.7-700-1663.1c86.9-528.6,491.7-900.7,939-1104.4
	c1069.7-487.3,2303.1-225.6,3257.1,419.4c520.2,351.6,992.8,803.6,1398.2,1294c395.8,478.6,692,1050.2,630.1,1704
	C3161.5,2713.7,1942.7,3467.1,820.1,3613.7c-1279.2,167.1-2610.4-377.8-3599.4-1214.3c-425.6-360-760.5-857.6-619.9-1456.1
	c122.5-520.7,540-934.2,981.8-1168.4c1131.5-600,2595.2-302.9,3657.4,324.8C2159.2,642.8,3035.9,1673.4,2688,2863
	C2314.2,4141.4,897,4521.7-232.5,4455.6c-712.1-41.6-1410-233.4-2080.9-480.3c-557.3-204.9-1113.2-458.6-1583.8-839.6
	c-387-313.1-887.6-867.5-784.7-1434.5c107.1-590.1,831.3-704.6,1290.6-572.4c547,157.5,1085.8,664.1,1251,1242.5
	c159.4,558.1-148.1,1109.1-650.9,1313c-568.2,230.3-1246.9,58.6-1731.9-298.7c-497-366.1-921.7-926.5-1229.5-1472.5
	c-275.5-488.8-447.7-1073.9-271.6-1633.1c163-517.5,548-889.5,1029.1-1071.9c27.5,105.1,55,210,82.4,315
	c-748.1,162.7-1751.5-487.3-1329.9-1379.6c439-929.4,1700.9-963,2520-720.8c486.2,143.9,941.5,395.2,1362.3,685.8
	c317.1,218.8,714.5,581.5,516.1,1026.8c-194,435-764.1,413.4-1086.8,162.5c-337.5-262.3-483.6-789-495.9-1213.4
	c-30-1032.9,927.8-1437.5,1763.7-1448.3c890.2-11.5,1810.3,316.2,2524,873.8C1483.5-2004,2001.7-1306.1,2101.3-475.8
	c52.2,435-35.1,888.6-329,1214c-319.2,353.4-809.3,487.2-1257.4,513.5c-838.8,49.1-1991.1-342.7-2155.4-1344
	c-157.9-962.4,791.2-1501.4,1549.7-1651.6c1539.1-304.8,3863.5,590,3892.7,2528.8c13.3,883.6-506.2,1675.2-1199.4,2131.4
	C1843.9,3415.7,880.1,3574.6,1.3,3458.9c-445.9-58.7-894.4-183.8-1288.3-417.2c-345.6-204.8-716-545.3-719.2-998.6
	c-3-424.5,338.4-746.2,682.6-900c423.1-189.2,905.7-166,1320.7,36.6c364.4,177.8,670.8,527.8,672,970.4
	c1.3,473.4-326.1,844.4-717.9,1026.4c-451.1,209.4-972.6,255.6-1460.6,240.7c-494.5-14.9-991-107.1-1457.2-282.6
	c-861.6-324.2-1640.3-947.2-1993.1-1859c-159.8-413.1-228.1-900.3-123.1-1337.8c104.9-437,428.8-735.5,802.7-923.2
	c397.9-200.1,831-304.8,1260.2-399.9c194.7-43.2,277.9,271.7,82.4,315c-600.1,132.8-1592,293.7-1822.8,1008.9
	c-232.7,720.9,146.4,1550.2,619.8,2059c558.5,600.4,1339.5,928.5,2119.3,1047.7c414.9,63.5,848,69.1,1262.8,2.1
	c361.9-58.4,790.3-175.8,1005.1-517.7C453,2201.2,349,1821.4,60.2,1595.2C-246.6,1355-676.3,1277.7-1043,1383.8
	c-289.4,83.8-692.7,332.8-650.9,706.6c40.8,364.8,429.7,609.4,712.7,750.4c1257.3,626.8,3173.7,409.7,4059.7-804.3
	c394.1-539.9,542.2-1270.1,280.1-1908.7c-270.1-658.3-889.7-1114.7-1509.3-1359.7c-701.8-277.8-1494.6-344.6-2214.7-103
	c-312.7,105-641.9,278.2-836.3,567.8c-201.9,300.7-180.9,671.9,3.5,975.5c422.2,695.2,1451.4,841.5,2150,644.3
	c373-105.1,705.2-337.3,813.7-746.3c85.7-322.7,32.9-670-71.4-980.5C1232.3-2249.6-348.6-3054.4-1663.2-3037.6
	c-699.9,9.1-1523.9,312.8-1449.7,1200.3c30.2,361,175.4,853.9,543.9,965c158.8,48,395.9,38.2,455.5-159.8
	c56.4-187.8-112.6-350.4-236.9-454.1c-628.8-523.9-1476.4-906.8-2284.9-893.2c-396.6,6.7-829.9,105.6-1129.4,397.4
	c-235.1,229.1-375.2,586.2-148.7,875.8c213.7,273.2,596.6,384.3,918.1,314.2c196.5-42.7,269.9,243.9,82.4,315
	C-5345.8-312.8-5682.2,60.4-5769.1,543c-97.3,540,177.9,1070,464.6,1495.2c315.9,468.7,695,958.1,1188.4,1225.1
	c431.5,233.3,1092.2,320.2,1480.4-51.9c838-803.3-737.9-2211.1-1559.7-1698.2c-490.1,305.8,82.2,998.9,351.2,1248.5
	c387.1,359.4,871.6,603.3,1349.5,797c1066.3,432.2,2278.3,760.7,3416,470.7c489.1-124.8,978.6-372.6,1268.9-822.9
	c254.9-395.3,332.3-887.9,198-1346C2092.9,852.4,1019,230.8,119.5-39.2c-971-291.3-2286.4-307.8-2986.2,594.7
	c-286.7,369.8-347.5,836.2-65.4,1228.9c317.7,442.3,841.9,756.6,1304.9,1001.3c994.8,526.1,2181.5,731.6,3237.2,280.6
	c463.9-198.3,904-526.6,1156.8-990.8c258.8-475.1,287-1051.3,53.3-1543.6C2575.4,16.5,2142.2-410.3,1735.7-786.2
	c-391.8-362.5-831.5-679.9-1317.8-884.2c-817.8-343.4-1951.4-407-2678.8,208.3c-404.9,342.4-487.2,887.3-254.4,1369.8
	c247.3,512.4,733.4,861.8,1195.8,1136.8c497.4,295.7,1048.5,547,1631.4,518.5c498.7-24.5,1001.7-273.2,1320.5-681.8
	c685.4-878.4,296.2-2226.8-324.4-3016.7c-705.3-897.4-1807.4-1386.2-2898-1453.7c-911.2-56.3-2155.3,181.8-2663.5,1086.6
	c-297.8,530.5-194.2,1171.5,35.5,1707c197.8,461.1,486.6,898.2,889.5,1184.2c389.9,276.9,853.1,396.3,1320.2,331.8
	c410.9-56.8,895.4-270.5,916.7-772.8c20-471.5-256.6-923.8-565.5-1239.1c-339.7-346.7-770.5-590-1222.1-731.5
	c-496.8-155.7-1031.9-193.6-1540.8-80.8c-455.4,101.1-950.8,324.2-1159.9,793.7c-211.6,474.9-101.6,1081.5,63.1,1553.9
	c168.8,484.3,456,919.4,801.2,1282.6c722.9,760.7,1940,1453.6,2968.8,982.6c429.8-196.9,789.3-612,773-1128.8
	C-991.8,816.5-1402.5,357-1850.5,102c-460.3-261.8-1010.2-343-1517.1-199.4c-424.2,120.1-903.8,431.1-895.5,952.4
	c7.9,494.6,412.7,918.7,776.2,1176.4c453.3,321.4,990.7,513,1524.9,617.4c1002.6,196.3,2523.7,189,2881.6-1062.4
	C1238.4,471.2,362.4-459.8-517.7-895.4c-877.9-434.6-2022.8-629.2-2951.2-257c-461.9,185.2-797.4,566.1-755.9,1115.1
	c36.2,478.4,295.3,908.8,604.2,1246.7c708.6,774.5,1765.3,1302,2759.5,1506.9c922.1,190,2085.4-29.8,2325.6-1143.9
	c188.4-873.9-336.7-1684.9-952.3-2212c-739.3-632.8-1710.5-980.9-2653.8-1052.4c-505-38.3-1055.2-21.4-1537.6,154.9
	c-524.2,191.4-760.8,695.9-680.1,1259.7c165.7,1156.3,1273.4,1887.9,2201.1,2324.1c1028.2,483.3,2298.9,904.7,3402.3,456.3
	C2141.3,2138.2,2952.3,1053,2616,0.7c-167.6-524.6-621-884.8-1060.6-1147.6C1074-1434.8,548.5-1640.5,14-1787.8
	c-1062.2-292.9-2187.1-347.4-3270.3-159C-3451.6-1912.8-3535.5-2227.7-3338.8-2261.9L-3338.8-2261.9z"/>
</svg>
