<svg width="32" height="32" viewBox="0 0 32 32" fill="none" xmlns="http://www.w3.org/2000/svg">
<g clip-path="url(#clip0_712_2067)">
<path d="M13.5 5.41C12.34 10.44 13.83 15.82 17.53 19.52C19.6 21.59 22.24 23.01 25.1 23.61C23.02 25.76 20.15 27 17.13 27C16.99 27 16.85 27 16.71 27C11.02 26.79 6.31 22.17 6.02 16.49C5.76 11.49 8.9 7 13.51 5.42M14.99 3.01C14.93 3.01 14.87 3.01 14.82 3.03C8.46 4.15 3.67 9.84 4.02 16.59C4.36 23.28 9.94 28.76 16.63 29C16.79 29 16.96 29 17.12 29C21.55 29 25.45 26.8 27.82 23.44C28.27 22.8 27.82 21.94 27.04 21.88C24.09 21.62 21.2 20.37 18.94 18.11C15.23 14.4 14.21 9.01 15.89 4.38C16.13 3.71 15.65 3 14.98 3L14.99 3.01Z" fill="black"/>
</g>
<defs>
<clipPath id="clip0_712_2067">
<rect width="24" height="26" fill="white" transform="translate(4 3)"/>
</clipPath>
</defs>
</svg>
